%TF.GenerationSoftware,KiCad,Pcbnew,7.0.9*%
%TF.CreationDate,2025-02-20T14:34:02+01:00*%
%TF.ProjectId,firefly,66697265-666c-4792-9e6b-696361645f70,rev?*%
%TF.SameCoordinates,Original*%
%TF.FileFunction,Copper,L2,Bot*%
%TF.FilePolarity,Positive*%
%FSLAX46Y46*%
G04 Gerber Fmt 4.6, Leading zero omitted, Abs format (unit mm)*
G04 Created by KiCad (PCBNEW 7.0.9) date 2025-02-20 14:34:02*
%MOMM*%
%LPD*%
G01*
G04 APERTURE LIST*
G04 Aperture macros list*
%AMRoundRect*
0 Rectangle with rounded corners*
0 $1 Rounding radius*
0 $2 $3 $4 $5 $6 $7 $8 $9 X,Y pos of 4 corners*
0 Add a 4 corners polygon primitive as box body*
4,1,4,$2,$3,$4,$5,$6,$7,$8,$9,$2,$3,0*
0 Add four circle primitives for the rounded corners*
1,1,$1+$1,$2,$3*
1,1,$1+$1,$4,$5*
1,1,$1+$1,$6,$7*
1,1,$1+$1,$8,$9*
0 Add four rect primitives between the rounded corners*
20,1,$1+$1,$2,$3,$4,$5,0*
20,1,$1+$1,$4,$5,$6,$7,0*
20,1,$1+$1,$6,$7,$8,$9,0*
20,1,$1+$1,$8,$9,$2,$3,0*%
%AMHorizOval*
0 Thick line with rounded ends*
0 $1 width*
0 $2 $3 position (X,Y) of the first rounded end (center of the circle)*
0 $4 $5 position (X,Y) of the second rounded end (center of the circle)*
0 Add line between two ends*
20,1,$1,$2,$3,$4,$5,0*
0 Add two circle primitives to create the rounded ends*
1,1,$1,$2,$3*
1,1,$1,$4,$5*%
%AMRotRect*
0 Rectangle, with rotation*
0 The origin of the aperture is its center*
0 $1 length*
0 $2 width*
0 $3 Rotation angle, in degrees counterclockwise*
0 Add horizontal line*
21,1,$1,$2,0,0,$3*%
G04 Aperture macros list end*
%TA.AperFunction,NonConductor*%
%ADD10C,0.300000*%
%TD*%
%TA.AperFunction,ComponentPad*%
%ADD11RotRect,1.800000X1.800000X135.000000*%
%TD*%
%TA.AperFunction,ComponentPad*%
%ADD12C,1.800000*%
%TD*%
%TA.AperFunction,ComponentPad*%
%ADD13R,1.800000X1.800000*%
%TD*%
%TA.AperFunction,ComponentPad*%
%ADD14RotRect,1.800000X1.800000X315.000000*%
%TD*%
%TA.AperFunction,ComponentPad*%
%ADD15RotRect,1.800000X1.800000X225.000000*%
%TD*%
%TA.AperFunction,ComponentPad*%
%ADD16RotRect,1.800000X1.800000X45.000000*%
%TD*%
%TA.AperFunction,ComponentPad*%
%ADD17O,2.100000X2.100000*%
%TD*%
%TA.AperFunction,ComponentPad*%
%ADD18R,2.100000X2.100000*%
%TD*%
%TA.AperFunction,ComponentPad*%
%ADD19RoundRect,0.400000X-0.900000X0.400000X-0.900000X-0.400000X0.900000X-0.400000X0.900000X0.400000X0*%
%TD*%
%TA.AperFunction,ComponentPad*%
%ADD20C,1.600000*%
%TD*%
%TA.AperFunction,ComponentPad*%
%ADD21HorizOval,1.600000X0.000000X0.000000X0.000000X0.000000X0*%
%TD*%
%TA.AperFunction,ComponentPad*%
%ADD22HorizOval,1.600000X0.000000X0.000000X0.000000X0.000000X0*%
%TD*%
%TA.AperFunction,ComponentPad*%
%ADD23HorizOval,1.600000X0.000000X0.000000X0.000000X0.000000X0*%
%TD*%
%TA.AperFunction,ComponentPad*%
%ADD24HorizOval,1.600000X0.000000X0.000000X0.000000X0.000000X0*%
%TD*%
%TA.AperFunction,ComponentPad*%
%ADD25HorizOval,1.600000X0.000000X0.000000X0.000000X0.000000X0*%
%TD*%
%TA.AperFunction,ComponentPad*%
%ADD26HorizOval,1.600000X0.000000X0.000000X0.000000X0.000000X0*%
%TD*%
%TA.AperFunction,ComponentPad*%
%ADD27HorizOval,1.600000X0.000000X0.000000X0.000000X0.000000X0*%
%TD*%
%TA.AperFunction,ComponentPad*%
%ADD28HorizOval,1.600000X0.000000X0.000000X0.000000X0.000000X0*%
%TD*%
%TA.AperFunction,Conductor*%
%ADD29C,0.250000*%
%TD*%
G04 APERTURE END LIST*
D10*
X141334643Y-78357305D02*
G75*
G03*
X138281667Y-76201738I-12267043J-14134295D01*
G01*
X147700580Y-91185999D02*
G75*
G03*
X147066002Y-87503002I-18668480J-1320401D01*
G01*
X147701000Y-93726000D02*
X145288000Y-93726000D01*
X127762000Y-73787427D02*
G75*
G03*
X124079004Y-74421998I1320400J-18668673D01*
G01*
X130302000Y-73787000D02*
X130302000Y-76200000D01*
X116713000Y-78359000D02*
X118451497Y-80097497D01*
X141351000Y-106553000D02*
X139611915Y-104813915D01*
X143129000Y-80137000D02*
X141383610Y-81882390D01*
X132334000Y-92456000D02*
G75*
G03*
X132334000Y-92456000I-3302000J0D01*
G01*
X114935000Y-104775000D02*
X116665663Y-103044337D01*
X114933310Y-80153360D02*
G75*
G03*
X112777737Y-83206337I14134390J-12267140D01*
G01*
X110363000Y-91186000D02*
X112776000Y-91186000D01*
X143130704Y-104758651D02*
G75*
G03*
X145286264Y-101705666I-14134404J12267051D01*
G01*
X110363428Y-93726000D02*
G75*
G03*
X110998001Y-97409000I18668672J1320400D01*
G01*
X127762000Y-111125000D02*
X127762000Y-108712000D01*
X141986000Y-92456000D02*
X145288000Y-92456000D01*
X116729353Y-106554699D02*
G75*
G03*
X119782336Y-108710262I12267147J14134499D01*
G01*
X130302000Y-111124575D02*
G75*
G03*
X133984999Y-110490000I-1320400J18668575D01*
G01*
X145288000Y-92456000D02*
G75*
G03*
X145288000Y-92456000I-16256000J0D01*
G01*
D11*
%TO.P,D1,1*%
%TO.N,GND*%
X143113324Y-80177798D03*
D12*
%TO.P,D1,2*%
%TO.N,LED*%
X141317273Y-78381747D03*
%TD*%
D13*
%TO.P,D2,1*%
%TO.N,GND*%
X130307000Y-73817000D03*
D12*
%TO.P,D2,2*%
%TO.N,LED*%
X127767000Y-73817000D03*
%TD*%
D14*
%TO.P,REF\u002A\u002A,1*%
%TO.N,GND*%
X114950676Y-104734202D03*
D12*
%TO.P,REF\u002A\u002A,2*%
%TO.N,LED*%
X116746727Y-106530253D03*
%TD*%
D13*
%TO.P,REF\u002A\u002A,1*%
%TO.N,GND*%
X110393000Y-91181000D03*
D12*
%TO.P,REF\u002A\u002A,2*%
%TO.N,LED*%
X110393000Y-93721000D03*
%TD*%
D15*
%TO.P,REF\u002A\u002A,1*%
%TO.N,GND*%
X116753798Y-78374676D03*
D12*
%TO.P,REF\u002A\u002A,2*%
%TO.N,LED*%
X114957747Y-80170727D03*
%TD*%
D16*
%TO.P,REF\u002A\u002A,1*%
%TO.N,GND*%
X141310202Y-106537324D03*
D12*
%TO.P,REF\u002A\u002A,2*%
%TO.N,LED*%
X143106253Y-104741273D03*
%TD*%
D13*
%TO.P,REF\u002A\u002A,1*%
%TO.N,GND*%
X127757000Y-111095000D03*
D12*
%TO.P,REF\u002A\u002A,2*%
%TO.N,LED*%
X130297000Y-111095000D03*
%TD*%
D17*
%TO.P,CR2023,1*%
%TO.N,3V*%
X121841176Y-92456000D03*
D18*
%TO.P,CR2023,2*%
%TO.N,GND*%
X142034176Y-92456000D03*
%TD*%
D13*
%TO.P,D8,1*%
%TO.N,GND*%
X147671000Y-93731000D03*
D12*
%TO.P,D8,2*%
%TO.N,LED*%
X147671000Y-91191000D03*
%TD*%
D19*
%TO.P,,1*%
%TO.N,3V*%
X116078000Y-87731600D03*
%TO.P,,2*%
X116078000Y-92456000D03*
%TO.P,,3*%
%TO.N,N/C*%
X116078000Y-97180400D03*
%TD*%
D20*
%TO.P,R2,1*%
%TO.N,3V*%
X128177378Y-89266515D03*
D21*
%TO.P,R2,2*%
%TO.N,LED*%
X124232976Y-74545805D03*
%TD*%
D20*
%TO.P,R5,1*%
%TO.N,3V*%
X127380999Y-95315614D03*
D22*
%TO.P,R5,2*%
%TO.N,LED*%
X119760999Y-108513841D03*
%TD*%
D20*
%TO.P,R4,1*%
%TO.N,3V*%
X125842513Y-93310620D03*
D23*
%TO.P,R4,2*%
%TO.N,LED*%
X111121803Y-97255022D03*
%TD*%
D20*
%TO.P,R6,1*%
%TO.N,3V*%
X129886618Y-95645485D03*
D24*
%TO.P,R6,2*%
%TO.N,LED*%
X133831020Y-110366195D03*
%TD*%
D20*
%TO.P,3,1*%
%TO.N,3V*%
X126172384Y-90805001D03*
D25*
%TO.P,3,2*%
%TO.N,LED*%
X112974157Y-83185001D03*
%TD*%
D20*
%TO.P,R7,1*%
%TO.N,3V*%
X131891612Y-94106999D03*
D26*
%TO.P,R7,2*%
%TO.N,LED*%
X145089839Y-101726999D03*
%TD*%
D20*
%TO.P,R1,1*%
%TO.N,3V*%
X130682997Y-89596386D03*
D27*
%TO.P,R1,2*%
%TO.N,LED*%
X138302997Y-76398159D03*
%TD*%
D20*
%TO.P,R8,1*%
%TO.N,3V*%
X132221483Y-91601380D03*
D28*
%TO.P,R8,2*%
%TO.N,LED*%
X146942193Y-87656978D03*
%TD*%
D29*
%TO.N,3V*%
X116078000Y-87731600D02*
X116078000Y-89535000D01*
X121841176Y-92456000D02*
X116078000Y-92456000D01*
X116078000Y-89535000D02*
X117348001Y-90805001D01*
X117348001Y-90805001D02*
X126172384Y-90805001D01*
%TD*%
%TA.AperFunction,NonConductor*%
G36*
X129571195Y-72145443D02*
G01*
X130094701Y-72168622D01*
X130160800Y-72191252D01*
X130204174Y-72246028D01*
X130211049Y-72315559D01*
X130179242Y-72377768D01*
X130118850Y-72412906D01*
X130089212Y-72416500D01*
X129359129Y-72416500D01*
X129359123Y-72416501D01*
X129299516Y-72422908D01*
X129164671Y-72473202D01*
X129164664Y-72473206D01*
X129049455Y-72559452D01*
X129049452Y-72559455D01*
X128963206Y-72674664D01*
X128963203Y-72674670D01*
X128934544Y-72751508D01*
X128892672Y-72807441D01*
X128827208Y-72831858D01*
X128758935Y-72817006D01*
X128727135Y-72792158D01*
X128718784Y-72783087D01*
X128718778Y-72783082D01*
X128718777Y-72783081D01*
X128535634Y-72640535D01*
X128535628Y-72640531D01*
X128331504Y-72530064D01*
X128331495Y-72530061D01*
X128111984Y-72454702D01*
X127889999Y-72417659D01*
X127827114Y-72387208D01*
X127790674Y-72327593D01*
X127792250Y-72257741D01*
X127831340Y-72199830D01*
X127895534Y-72172245D01*
X127904873Y-72171475D01*
X128492807Y-72145443D01*
X128672265Y-72141473D01*
X129391735Y-72141473D01*
X129571195Y-72145443D01*
G37*
%TD.AperFunction*%
%TA.AperFunction,NonConductor*%
G36*
X142532932Y-77275726D02*
G01*
X142551754Y-77289612D01*
X142560550Y-77297485D01*
X142649362Y-77376979D01*
X142693121Y-77417926D01*
X143174678Y-77868536D01*
X143232860Y-77925446D01*
X143303041Y-77994092D01*
X143806075Y-78508381D01*
X143878290Y-78585553D01*
X143928775Y-78639506D01*
X144122264Y-78855676D01*
X144152308Y-78918757D01*
X144143478Y-78988066D01*
X144098579Y-79041599D01*
X144031865Y-79062360D01*
X143964517Y-79043756D01*
X143942189Y-79026057D01*
X143433387Y-78517256D01*
X143433380Y-78517249D01*
X143386697Y-78479629D01*
X143313126Y-78446030D01*
X143255779Y-78419840D01*
X143255781Y-78419840D01*
X143113324Y-78399359D01*
X142970869Y-78419840D01*
X142895183Y-78454405D01*
X142826025Y-78464348D01*
X142762469Y-78435323D01*
X142724695Y-78376544D01*
X142720096Y-78351855D01*
X142703407Y-78150442D01*
X142690964Y-78101305D01*
X142646430Y-77925446D01*
X142553197Y-77712898D01*
X142495702Y-77624896D01*
X142426252Y-77518594D01*
X142377828Y-77465991D01*
X142346906Y-77403336D01*
X142354767Y-77333910D01*
X142398914Y-77279755D01*
X142465332Y-77258065D01*
X142532932Y-77275726D01*
G37*
%TD.AperFunction*%
%TA.AperFunction,NonConductor*%
G36*
X115602271Y-77306314D02*
G01*
X115655804Y-77351213D01*
X115676566Y-77417926D01*
X115657963Y-77485274D01*
X115640263Y-77507604D01*
X115093256Y-78054612D01*
X115093250Y-78054619D01*
X115055628Y-78101304D01*
X115055627Y-78101306D01*
X114995840Y-78232219D01*
X114975359Y-78374676D01*
X114995840Y-78517132D01*
X115031272Y-78594715D01*
X115041216Y-78663874D01*
X115012191Y-78727429D01*
X114953413Y-78765204D01*
X114918478Y-78770227D01*
X114841698Y-78770227D01*
X114795911Y-78777867D01*
X114612762Y-78808429D01*
X114393251Y-78883788D01*
X114393242Y-78883791D01*
X114189119Y-78994258D01*
X114053098Y-79100127D01*
X113988104Y-79125769D01*
X113919564Y-79112202D01*
X113869239Y-79063734D01*
X113853108Y-78995752D01*
X113876291Y-78929840D01*
X113884527Y-78919591D01*
X114135258Y-78639468D01*
X114230058Y-78538160D01*
X114257924Y-78508381D01*
X114760958Y-77994092D01*
X114762999Y-77992095D01*
X114889311Y-77868546D01*
X115414653Y-77376964D01*
X115469885Y-77327527D01*
X115532961Y-77297485D01*
X115602271Y-77306314D01*
G37*
%TD.AperFunction*%
%TA.AperFunction,NonConductor*%
G36*
X127479388Y-72219186D02*
G01*
X127529631Y-72267739D01*
X127545648Y-72335748D01*
X127522354Y-72401620D01*
X127467145Y-72444442D01*
X127442243Y-72451326D01*
X127422022Y-72454700D01*
X127422017Y-72454701D01*
X127202504Y-72530061D01*
X127202495Y-72530064D01*
X126998371Y-72640531D01*
X126998365Y-72640535D01*
X126815222Y-72783081D01*
X126815219Y-72783084D01*
X126815216Y-72783086D01*
X126815216Y-72783087D01*
X126770319Y-72831858D01*
X126658016Y-72953852D01*
X126531079Y-73148145D01*
X126531077Y-73148149D01*
X126507950Y-73200871D01*
X126462993Y-73254355D01*
X126413001Y-73273654D01*
X125793512Y-73367674D01*
X125080172Y-73505326D01*
X125010617Y-73498700D01*
X124985554Y-73485147D01*
X124885713Y-73415239D01*
X124885712Y-73415238D01*
X124885710Y-73415237D01*
X124769574Y-73361081D01*
X124679473Y-73319066D01*
X124679464Y-73319063D01*
X124459673Y-73260171D01*
X124459669Y-73260170D01*
X124459668Y-73260170D01*
X124459667Y-73260169D01*
X124459662Y-73260169D01*
X124232978Y-73240337D01*
X124232974Y-73240337D01*
X124006289Y-73260169D01*
X124006278Y-73260171D01*
X123786487Y-73319063D01*
X123786478Y-73319066D01*
X123580243Y-73415236D01*
X123580241Y-73415237D01*
X123393834Y-73545759D01*
X123232930Y-73706663D01*
X123102408Y-73893070D01*
X123102407Y-73893072D01*
X123006237Y-74099307D01*
X123006234Y-74099316D01*
X122947342Y-74319107D01*
X122947340Y-74319118D01*
X122927508Y-74545803D01*
X122927508Y-74545806D01*
X122947340Y-74772491D01*
X122947342Y-74772502D01*
X123006234Y-74992293D01*
X123006237Y-74992302D01*
X123102407Y-75198537D01*
X123102408Y-75198539D01*
X123232930Y-75384946D01*
X123393834Y-75545850D01*
X123393837Y-75545852D01*
X123580242Y-75676373D01*
X123786480Y-75772544D01*
X123786485Y-75772545D01*
X123786487Y-75772546D01*
X123839391Y-75786721D01*
X124006284Y-75831440D01*
X124168206Y-75845606D01*
X124232974Y-75851273D01*
X124232976Y-75851273D01*
X124232978Y-75851273D01*
X124289649Y-75846314D01*
X124459668Y-75831440D01*
X124679472Y-75772544D01*
X124885710Y-75676373D01*
X125072115Y-75545852D01*
X125233023Y-75384944D01*
X125363544Y-75198539D01*
X125459715Y-74992301D01*
X125505745Y-74820513D01*
X125542108Y-74760855D01*
X125599591Y-74731349D01*
X125649702Y-74720636D01*
X125659621Y-74718516D01*
X126371756Y-74595816D01*
X126507337Y-74578005D01*
X126576369Y-74588790D01*
X126627296Y-74633127D01*
X126658015Y-74680145D01*
X126658017Y-74680147D01*
X126658021Y-74680153D01*
X126815216Y-74850913D01*
X126815219Y-74850915D01*
X126815222Y-74850918D01*
X126998365Y-74993464D01*
X126998371Y-74993468D01*
X126998374Y-74993470D01*
X127202497Y-75103936D01*
X127251163Y-75120643D01*
X127422015Y-75179297D01*
X127422017Y-75179297D01*
X127422019Y-75179298D01*
X127650951Y-75217500D01*
X127650952Y-75217500D01*
X127883048Y-75217500D01*
X127883049Y-75217500D01*
X128111981Y-75179298D01*
X128331503Y-75103936D01*
X128535626Y-74993470D01*
X128718784Y-74850913D01*
X128727130Y-74841846D01*
X128787010Y-74805854D01*
X128856849Y-74807949D01*
X128914468Y-74847469D01*
X128934544Y-74882491D01*
X128963203Y-74959330D01*
X128963206Y-74959335D01*
X129049452Y-75074544D01*
X129049455Y-75074547D01*
X129164664Y-75160793D01*
X129164671Y-75160797D01*
X129193145Y-75171417D01*
X129299517Y-75211091D01*
X129359127Y-75217500D01*
X129527500Y-75217499D01*
X129594539Y-75237183D01*
X129640294Y-75289987D01*
X129651500Y-75341499D01*
X129651500Y-75429556D01*
X129631815Y-75496595D01*
X129579011Y-75542350D01*
X129521509Y-75553411D01*
X129440652Y-75549500D01*
X129440644Y-75549500D01*
X128623356Y-75549500D01*
X128623348Y-75549500D01*
X127807022Y-75588986D01*
X126993567Y-75667863D01*
X126993557Y-75667864D01*
X126993551Y-75667865D01*
X126184840Y-75785954D01*
X125382779Y-75942977D01*
X124589240Y-76138567D01*
X123806078Y-76372267D01*
X123035121Y-76643531D01*
X123035109Y-76643536D01*
X123035109Y-76643535D01*
X122278177Y-76951723D01*
X121536994Y-77296131D01*
X121536995Y-77296130D01*
X121332732Y-77403336D01*
X120813322Y-77675944D01*
X120813317Y-77675947D01*
X120108863Y-78090265D01*
X120108856Y-78090269D01*
X120108845Y-78090276D01*
X119425208Y-78538159D01*
X119425206Y-78538160D01*
X118764003Y-79018553D01*
X118589209Y-79158935D01*
X118524614Y-79185566D01*
X118455875Y-79173047D01*
X118423882Y-79149936D01*
X118279193Y-79005247D01*
X118245708Y-78943924D01*
X118250692Y-78874232D01*
X118279190Y-78829887D01*
X118414347Y-78694732D01*
X118451967Y-78648049D01*
X118511755Y-78517133D01*
X118532237Y-78374676D01*
X118511755Y-78232219D01*
X118474408Y-78150442D01*
X118451968Y-78101305D01*
X118451967Y-78101304D01*
X118451967Y-78101303D01*
X118414348Y-78054620D01*
X118414343Y-78054615D01*
X118414339Y-78054610D01*
X117073861Y-76714134D01*
X117073854Y-76714127D01*
X117027171Y-76676507D01*
X116954975Y-76643536D01*
X116896253Y-76616718D01*
X116896255Y-76616718D01*
X116753798Y-76596237D01*
X116701807Y-76603712D01*
X116632648Y-76593768D01*
X116579844Y-76548013D01*
X116560160Y-76480973D01*
X116579845Y-76413934D01*
X116607767Y-76383300D01*
X116800615Y-76232478D01*
X116877832Y-76174796D01*
X116944414Y-76125056D01*
X117530228Y-75707308D01*
X117678613Y-75606369D01*
X118282380Y-75214911D01*
X118435035Y-75120666D01*
X119055492Y-74756317D01*
X119212256Y-74668867D01*
X119848146Y-74332361D01*
X120008630Y-74251927D01*
X120658842Y-73943850D01*
X120822664Y-73870622D01*
X121485881Y-73591601D01*
X121652791Y-73525687D01*
X122327717Y-73276269D01*
X122497375Y-73217805D01*
X123182662Y-72998489D01*
X123354738Y-72947587D01*
X124049018Y-72758809D01*
X124223256Y-72715548D01*
X124925163Y-72557675D01*
X125101145Y-72522163D01*
X125809345Y-72395493D01*
X125986743Y-72367798D01*
X126699872Y-72272575D01*
X126878246Y-72252762D01*
X127410876Y-72205503D01*
X127479388Y-72219186D01*
G37*
%TD.AperFunction*%
%TA.AperFunction,NonConductor*%
G36*
X132077246Y-72367797D02*
G01*
X132254672Y-72395496D01*
X132962828Y-72522159D01*
X133138871Y-72557683D01*
X133840753Y-72715551D01*
X134014990Y-72758811D01*
X134709230Y-72947579D01*
X134881384Y-72998504D01*
X135566589Y-73217794D01*
X135736302Y-73276277D01*
X136411190Y-73525680D01*
X136578107Y-73591596D01*
X137241324Y-73870617D01*
X137405214Y-73943877D01*
X138055342Y-74251915D01*
X138135982Y-74292331D01*
X138215854Y-74332362D01*
X138851744Y-74668868D01*
X138963745Y-74731348D01*
X139008549Y-74756342D01*
X139023075Y-74764872D01*
X139628955Y-75120661D01*
X139781638Y-75214923D01*
X140312357Y-75559020D01*
X140385364Y-75606355D01*
X140533779Y-75707314D01*
X141119554Y-76125034D01*
X141263384Y-76232479D01*
X141581121Y-76480973D01*
X141830103Y-76675696D01*
X141925835Y-76754040D01*
X141969030Y-76789390D01*
X142203474Y-76990073D01*
X142241602Y-77048622D01*
X142242024Y-77118490D01*
X142204605Y-77177495D01*
X142141225Y-77206903D01*
X142072008Y-77197377D01*
X142063832Y-77193335D01*
X141881776Y-77094811D01*
X141881768Y-77094808D01*
X141662257Y-77019449D01*
X141486213Y-76990073D01*
X141433322Y-76981247D01*
X141201224Y-76981247D01*
X141172582Y-76986026D01*
X140972291Y-77019448D01*
X140858934Y-77058364D01*
X140789135Y-77061513D01*
X140745140Y-77040927D01*
X140731299Y-77030734D01*
X140239526Y-76668562D01*
X139962231Y-76480973D01*
X139642813Y-76264888D01*
X139598316Y-76211020D01*
X139589714Y-76176769D01*
X139589571Y-76176795D01*
X139589218Y-76174796D01*
X139588765Y-76172990D01*
X139588632Y-76171467D01*
X139529736Y-75951663D01*
X139433565Y-75745425D01*
X139320707Y-75584246D01*
X139303042Y-75559017D01*
X139142138Y-75398113D01*
X138955731Y-75267591D01*
X138955729Y-75267590D01*
X138749494Y-75171420D01*
X138749485Y-75171417D01*
X138529694Y-75112525D01*
X138529690Y-75112524D01*
X138529689Y-75112524D01*
X138529688Y-75112523D01*
X138529683Y-75112523D01*
X138302999Y-75092691D01*
X138302995Y-75092691D01*
X138076310Y-75112523D01*
X138076299Y-75112525D01*
X137856508Y-75171417D01*
X137856499Y-75171420D01*
X137650264Y-75267590D01*
X137650262Y-75267591D01*
X137463855Y-75398113D01*
X137302951Y-75559017D01*
X137172429Y-75745424D01*
X137172428Y-75745426D01*
X137076258Y-75951661D01*
X137076255Y-75951670D01*
X137017363Y-76171461D01*
X137017361Y-76171472D01*
X136997529Y-76398157D01*
X136997529Y-76398160D01*
X137017361Y-76624845D01*
X137017363Y-76624856D01*
X137076255Y-76844647D01*
X137076258Y-76844656D01*
X137172428Y-77050891D01*
X137172429Y-77050893D01*
X137302951Y-77237300D01*
X137463855Y-77398204D01*
X137463858Y-77398206D01*
X137650263Y-77528727D01*
X137856501Y-77624898D01*
X138076305Y-77683794D01*
X138238227Y-77697960D01*
X138302995Y-77703627D01*
X138302997Y-77703627D01*
X138302999Y-77703627D01*
X138359670Y-77698668D01*
X138529689Y-77683794D01*
X138749493Y-77624898D01*
X138955731Y-77528727D01*
X138999460Y-77498107D01*
X139065662Y-77475780D01*
X139133430Y-77492789D01*
X139137976Y-77495596D01*
X139189660Y-77529073D01*
X139779976Y-77945868D01*
X139885184Y-78026644D01*
X139926370Y-78083083D01*
X139931980Y-78145393D01*
X139931138Y-78150437D01*
X139911973Y-78381740D01*
X139911973Y-78381753D01*
X139931137Y-78613044D01*
X139931139Y-78613055D01*
X139988115Y-78838047D01*
X140081348Y-79050595D01*
X140208289Y-79244894D01*
X140208292Y-79244898D01*
X140208294Y-79244900D01*
X140365489Y-79415660D01*
X140365492Y-79415662D01*
X140365495Y-79415665D01*
X140548638Y-79558211D01*
X140548644Y-79558215D01*
X140548647Y-79558217D01*
X140752770Y-79668683D01*
X140866760Y-79707815D01*
X140972288Y-79744044D01*
X140972290Y-79744044D01*
X140972292Y-79744045D01*
X141201224Y-79782247D01*
X141201225Y-79782247D01*
X141278004Y-79782247D01*
X141345043Y-79801932D01*
X141390798Y-79854736D01*
X141400742Y-79923894D01*
X141390798Y-79957759D01*
X141355366Y-80035341D01*
X141334885Y-80177798D01*
X141355366Y-80320254D01*
X141415154Y-80451170D01*
X141415155Y-80451172D01*
X141452765Y-80497843D01*
X141452776Y-80497856D01*
X141562805Y-80607885D01*
X141596290Y-80669208D01*
X141591306Y-80738900D01*
X141562805Y-80783247D01*
X141498945Y-80847107D01*
X141437622Y-80880592D01*
X141367930Y-80875608D01*
X141320463Y-80843872D01*
X141217062Y-80732689D01*
X141133807Y-80643168D01*
X141122892Y-80632514D01*
X140548951Y-80072278D01*
X139937220Y-79530331D01*
X139665302Y-79311944D01*
X139299996Y-79018553D01*
X139299997Y-79018553D01*
X138638794Y-78538160D01*
X138638792Y-78538159D01*
X137955155Y-78090276D01*
X137955143Y-78090269D01*
X137955137Y-78090265D01*
X137250683Y-77675947D01*
X137250678Y-77675944D01*
X136731268Y-77403336D01*
X136527005Y-77296130D01*
X136527006Y-77296131D01*
X135785823Y-76951723D01*
X135028891Y-76643535D01*
X135028891Y-76643536D01*
X135028879Y-76643531D01*
X134257922Y-76372267D01*
X133474760Y-76138567D01*
X132681221Y-75942977D01*
X131879160Y-75785954D01*
X131070449Y-75667865D01*
X131068259Y-75667652D01*
X131064523Y-75667290D01*
X130999698Y-75641222D01*
X130959258Y-75584246D01*
X130952500Y-75543870D01*
X130952500Y-75341499D01*
X130972185Y-75274460D01*
X131024989Y-75228705D01*
X131076500Y-75217499D01*
X131254871Y-75217499D01*
X131254872Y-75217499D01*
X131314483Y-75211091D01*
X131449331Y-75160796D01*
X131564546Y-75074546D01*
X131650796Y-74959331D01*
X131701091Y-74824483D01*
X131707500Y-74764873D01*
X131707499Y-72869128D01*
X131701091Y-72809517D01*
X131691233Y-72783087D01*
X131650797Y-72674671D01*
X131650793Y-72674664D01*
X131564547Y-72559455D01*
X131564544Y-72559452D01*
X131522555Y-72528019D01*
X131480684Y-72472086D01*
X131475700Y-72402394D01*
X131509186Y-72341071D01*
X131570509Y-72307587D01*
X131613275Y-72305844D01*
X132077246Y-72367797D01*
G37*
%TD.AperFunction*%
%TA.AperFunction,NonConductor*%
G36*
X113777789Y-79250417D02*
G01*
X113807198Y-79313796D01*
X113797673Y-79383014D01*
X113788378Y-79400006D01*
X113721822Y-79501878D01*
X113628589Y-79714426D01*
X113571613Y-79939418D01*
X113571611Y-79939429D01*
X113552447Y-80170720D01*
X113552447Y-80170733D01*
X113571611Y-80402024D01*
X113571613Y-80402035D01*
X113628589Y-80627025D01*
X113630253Y-80631870D01*
X113628376Y-80632514D01*
X113636196Y-80693362D01*
X113613581Y-80747409D01*
X113244565Y-81248477D01*
X112840893Y-81845184D01*
X112787025Y-81889682D01*
X112752769Y-81898285D01*
X112752794Y-81898427D01*
X112750818Y-81898775D01*
X112749001Y-81899231D01*
X112747465Y-81899366D01*
X112747463Y-81899366D01*
X112747459Y-81899367D01*
X112527668Y-81958259D01*
X112527659Y-81958262D01*
X112321424Y-82054432D01*
X112321422Y-82054433D01*
X112135015Y-82184955D01*
X111974111Y-82345859D01*
X111843589Y-82532266D01*
X111843588Y-82532268D01*
X111747418Y-82738503D01*
X111747415Y-82738512D01*
X111688523Y-82958303D01*
X111688521Y-82958314D01*
X111668689Y-83184999D01*
X111668689Y-83185002D01*
X111688521Y-83411687D01*
X111688523Y-83411698D01*
X111747415Y-83631489D01*
X111747418Y-83631498D01*
X111843588Y-83837733D01*
X111843589Y-83837735D01*
X111974111Y-84024142D01*
X112135015Y-84185046D01*
X112135018Y-84185048D01*
X112321423Y-84315569D01*
X112527661Y-84411740D01*
X112747465Y-84470636D01*
X112909387Y-84484802D01*
X112974155Y-84490469D01*
X112974157Y-84490469D01*
X112974159Y-84490469D01*
X113030830Y-84485510D01*
X113200849Y-84470636D01*
X113420653Y-84411740D01*
X113626891Y-84315569D01*
X113813296Y-84185048D01*
X113974204Y-84024140D01*
X114104725Y-83837735D01*
X114200896Y-83631497D01*
X114259792Y-83411693D01*
X114279625Y-83185001D01*
X114259792Y-82958309D01*
X114200896Y-82738505D01*
X114104725Y-82532267D01*
X114074108Y-82488542D01*
X114051782Y-82422337D01*
X114068792Y-82354570D01*
X114071576Y-82350059D01*
X114105074Y-82298345D01*
X114521871Y-81708028D01*
X114605962Y-81598501D01*
X114662402Y-81557315D01*
X114724725Y-81551707D01*
X114841698Y-81571227D01*
X114841700Y-81571227D01*
X115073795Y-81571227D01*
X115073796Y-81571227D01*
X115302728Y-81533025D01*
X115522250Y-81457663D01*
X115726373Y-81347197D01*
X115909531Y-81204640D01*
X116066726Y-81033880D01*
X116193671Y-80839576D01*
X116286904Y-80627027D01*
X116343881Y-80402032D01*
X116360569Y-80200621D01*
X116385723Y-80135439D01*
X116442125Y-80094200D01*
X116511868Y-80090002D01*
X116535655Y-80098067D01*
X116611341Y-80132633D01*
X116611340Y-80132633D01*
X116629247Y-80135207D01*
X116753798Y-80153115D01*
X116896255Y-80132633D01*
X117027171Y-80072845D01*
X117073854Y-80035226D01*
X117183885Y-79925192D01*
X117245207Y-79891708D01*
X117314899Y-79896692D01*
X117359247Y-79925193D01*
X117421889Y-79987835D01*
X117455374Y-80049158D01*
X117450390Y-80118850D01*
X117420824Y-80164250D01*
X116930201Y-80643159D01*
X116930201Y-80643160D01*
X116930193Y-80643168D01*
X116747533Y-80839575D01*
X116373608Y-81241640D01*
X116095541Y-81571227D01*
X115870176Y-81838348D01*
X115846577Y-81866319D01*
X115476976Y-82350006D01*
X115350359Y-82515706D01*
X114886087Y-83188320D01*
X114747341Y-83411693D01*
X114454860Y-83882568D01*
X114454859Y-83882569D01*
X114454853Y-83882580D01*
X114057665Y-84596863D01*
X114057660Y-84596872D01*
X114057660Y-84596873D01*
X113695450Y-85329501D01*
X113369053Y-86078787D01*
X113369054Y-86078787D01*
X113080952Y-86838451D01*
X113079239Y-86842967D01*
X113016477Y-87036128D01*
X112826685Y-87620247D01*
X112611979Y-88408823D01*
X112435619Y-89206866D01*
X112415197Y-89326438D01*
X112298024Y-90012482D01*
X112247759Y-90426448D01*
X112220138Y-90490625D01*
X112162204Y-90529681D01*
X112124664Y-90535500D01*
X111917499Y-90535500D01*
X111850460Y-90515815D01*
X111804705Y-90463011D01*
X111793499Y-90411500D01*
X111793499Y-90233129D01*
X111793498Y-90233123D01*
X111789417Y-90195160D01*
X111787091Y-90173517D01*
X111779165Y-90152267D01*
X111736797Y-90038671D01*
X111736793Y-90038664D01*
X111650547Y-89923455D01*
X111650544Y-89923452D01*
X111535335Y-89837206D01*
X111535328Y-89837202D01*
X111400482Y-89786908D01*
X111400483Y-89786908D01*
X111340883Y-89780501D01*
X111340881Y-89780500D01*
X111340873Y-89780500D01*
X111340864Y-89780500D01*
X109445129Y-89780500D01*
X109445123Y-89780501D01*
X109385516Y-89786908D01*
X109250671Y-89837202D01*
X109250664Y-89837206D01*
X109135455Y-89923452D01*
X109101014Y-89969459D01*
X109045079Y-90011330D01*
X108975388Y-90016313D01*
X108914065Y-89982827D01*
X108880581Y-89921503D01*
X108878506Y-89881459D01*
X108881349Y-89855860D01*
X108905103Y-89677961D01*
X109016085Y-88967075D01*
X109047690Y-88790377D01*
X109048262Y-88787545D01*
X109190005Y-88085108D01*
X109229394Y-87909987D01*
X109235930Y-87883664D01*
X109402762Y-87211719D01*
X109449856Y-87038518D01*
X109653956Y-86348553D01*
X109708657Y-86177635D01*
X109943067Y-85497403D01*
X110005289Y-85329031D01*
X110025449Y-85277980D01*
X110269557Y-84659834D01*
X110339167Y-84494378D01*
X110632753Y-83837580D01*
X110679133Y-83739693D01*
X110709642Y-83675306D01*
X110953718Y-83188314D01*
X111031987Y-83032149D01*
X111115955Y-82873475D01*
X111466462Y-82245157D01*
X111557342Y-82090393D01*
X111935338Y-81478131D01*
X112032974Y-81327544D01*
X112437651Y-80732646D01*
X112541857Y-80586518D01*
X112972448Y-80010108D01*
X112981228Y-79998882D01*
X113082998Y-79868752D01*
X113538696Y-79311914D01*
X113590370Y-79251547D01*
X113648916Y-79213421D01*
X113718784Y-79212999D01*
X113777789Y-79250417D01*
G37*
%TD.AperFunction*%
%TA.AperFunction,NonConductor*%
G36*
X120496755Y-91450186D02*
G01*
X120542510Y-91502990D01*
X120552454Y-91572148D01*
X120535443Y-91619291D01*
X120455398Y-91749911D01*
X120455396Y-91749915D01*
X120453722Y-91753957D01*
X120409879Y-91808359D01*
X120343584Y-91830421D01*
X120339163Y-91830500D01*
X117944992Y-91830500D01*
X117877953Y-91810815D01*
X117832198Y-91758011D01*
X117825217Y-91738591D01*
X117824317Y-91735234D01*
X117823320Y-91731512D01*
X117778802Y-91644140D01*
X117761812Y-91610795D01*
X117748916Y-91542126D01*
X117775193Y-91477386D01*
X117832299Y-91437129D01*
X117872297Y-91430501D01*
X120429716Y-91430501D01*
X120496755Y-91450186D01*
G37*
%TD.AperFunction*%
%TA.AperFunction,NonConductor*%
G36*
X145073351Y-79998881D02*
G01*
X145105654Y-80028987D01*
X145522142Y-80586518D01*
X145626363Y-80732668D01*
X146031025Y-81327544D01*
X146128687Y-81478173D01*
X146268309Y-81704327D01*
X146423832Y-81956237D01*
X146506611Y-82090318D01*
X146562185Y-82184955D01*
X146597543Y-82245168D01*
X146948026Y-82873442D01*
X147032021Y-83032166D01*
X147354357Y-83675306D01*
X147431246Y-83837581D01*
X147714219Y-84470634D01*
X147724833Y-84494378D01*
X147794453Y-84659862D01*
X148058710Y-85329031D01*
X148120934Y-85497409D01*
X148355337Y-86177619D01*
X148410053Y-86348588D01*
X148614133Y-87038484D01*
X148661243Y-87211743D01*
X148834605Y-87909987D01*
X148873995Y-88085116D01*
X149016309Y-88790377D01*
X149047914Y-88967078D01*
X149158889Y-89677918D01*
X149182652Y-89855880D01*
X149262072Y-90570919D01*
X149277941Y-90749753D01*
X149285147Y-90858164D01*
X149269952Y-90926361D01*
X149220299Y-90975518D01*
X149151952Y-90990026D01*
X149086611Y-90965280D01*
X149045022Y-90909137D01*
X149041214Y-90896829D01*
X149037464Y-90882019D01*
X149000157Y-90734700D01*
X148906924Y-90522151D01*
X148779983Y-90327852D01*
X148779980Y-90327849D01*
X148779979Y-90327847D01*
X148622784Y-90157087D01*
X148622779Y-90157083D01*
X148622777Y-90157081D01*
X148439634Y-90014535D01*
X148439623Y-90014528D01*
X148277859Y-89926986D01*
X148228268Y-89877767D01*
X148214281Y-89836540D01*
X148120330Y-89217509D01*
X147982676Y-88504165D01*
X147989302Y-88434611D01*
X148002852Y-88409551D01*
X148072761Y-88309712D01*
X148168932Y-88103474D01*
X148227828Y-87883670D01*
X148247661Y-87656978D01*
X148244447Y-87620247D01*
X148227828Y-87430291D01*
X148227828Y-87430286D01*
X148168932Y-87210482D01*
X148072761Y-87004244D01*
X147959835Y-86842967D01*
X147942238Y-86817836D01*
X147781334Y-86656932D01*
X147594927Y-86526410D01*
X147594925Y-86526409D01*
X147388690Y-86430239D01*
X147388681Y-86430236D01*
X147168890Y-86371344D01*
X147168886Y-86371343D01*
X147168885Y-86371343D01*
X147168884Y-86371342D01*
X147168879Y-86371342D01*
X146942195Y-86351510D01*
X146942191Y-86351510D01*
X146715506Y-86371342D01*
X146715495Y-86371344D01*
X146495704Y-86430236D01*
X146495695Y-86430239D01*
X146289460Y-86526409D01*
X146289458Y-86526410D01*
X146103051Y-86656932D01*
X145942147Y-86817836D01*
X145811625Y-87004243D01*
X145811624Y-87004245D01*
X145715454Y-87210480D01*
X145715451Y-87210489D01*
X145656559Y-87430280D01*
X145656557Y-87430291D01*
X145636725Y-87656976D01*
X145636725Y-87656979D01*
X145656557Y-87883664D01*
X145656559Y-87883675D01*
X145715451Y-88103466D01*
X145715454Y-88103475D01*
X145811624Y-88309710D01*
X145811625Y-88309712D01*
X145942147Y-88496119D01*
X146103051Y-88657023D01*
X146103054Y-88657025D01*
X146289459Y-88787546D01*
X146495697Y-88883717D01*
X146495702Y-88883718D01*
X146495704Y-88883719D01*
X146547282Y-88897539D01*
X146667489Y-88929748D01*
X146727150Y-88966113D01*
X146756655Y-89023596D01*
X146762682Y-89051783D01*
X146769489Y-89083620D01*
X146857838Y-89596386D01*
X146892189Y-89795756D01*
X146909959Y-89931034D01*
X146899173Y-90000066D01*
X146863177Y-90045037D01*
X146719222Y-90157081D01*
X146719219Y-90157084D01*
X146719216Y-90157086D01*
X146719216Y-90157087D01*
X146660267Y-90221122D01*
X146562016Y-90327852D01*
X146435075Y-90522151D01*
X146341842Y-90734699D01*
X146284866Y-90959691D01*
X146284864Y-90959702D01*
X146265700Y-91190993D01*
X146265700Y-91191006D01*
X146284864Y-91422297D01*
X146284866Y-91422308D01*
X146341842Y-91647300D01*
X146435075Y-91859848D01*
X146562016Y-92054147D01*
X146562019Y-92054151D01*
X146562021Y-92054153D01*
X146656803Y-92157114D01*
X146687724Y-92219767D01*
X146679864Y-92289193D01*
X146635716Y-92343348D01*
X146608906Y-92357277D01*
X146528669Y-92387203D01*
X146528664Y-92387206D01*
X146413455Y-92473452D01*
X146413452Y-92473455D01*
X146327206Y-92588664D01*
X146327202Y-92588671D01*
X146276908Y-92723517D01*
X146273536Y-92754886D01*
X146270501Y-92783123D01*
X146270500Y-92783135D01*
X146270500Y-92951500D01*
X146250815Y-93018539D01*
X146198011Y-93064294D01*
X146146500Y-93075500D01*
X146055498Y-93075500D01*
X145988459Y-93055815D01*
X145942704Y-93003011D01*
X145931534Y-92948504D01*
X145943438Y-92456000D01*
X145923690Y-91638956D01*
X145864489Y-90823806D01*
X145765976Y-90012483D01*
X145764724Y-90005155D01*
X145648803Y-89326438D01*
X145628381Y-89206866D01*
X145452021Y-88408823D01*
X145237315Y-87620247D01*
X145047523Y-87036128D01*
X144984761Y-86842967D01*
X144983048Y-86838451D01*
X144694946Y-86078787D01*
X144694947Y-86078787D01*
X144368550Y-85329501D01*
X144006340Y-84596873D01*
X144006339Y-84596872D01*
X144006335Y-84596863D01*
X143609147Y-83882580D01*
X143609141Y-83882569D01*
X143609140Y-83882568D01*
X143316659Y-83411693D01*
X143177913Y-83188320D01*
X142713641Y-82515706D01*
X142327582Y-82010482D01*
X142302520Y-81945263D01*
X142316697Y-81876847D01*
X142338424Y-81847520D01*
X142482754Y-81703190D01*
X142544075Y-81669708D01*
X142613767Y-81674692D01*
X142658114Y-81703193D01*
X142793268Y-81838347D01*
X142839951Y-81875967D01*
X142970867Y-81935755D01*
X142970866Y-81935755D01*
X142988773Y-81938329D01*
X143113324Y-81956237D01*
X143255781Y-81935755D01*
X143386697Y-81875967D01*
X143433380Y-81838348D01*
X144773873Y-80497854D01*
X144811493Y-80451171D01*
X144871281Y-80320255D01*
X144891763Y-80177798D01*
X144883574Y-80120842D01*
X144893518Y-80051686D01*
X144939272Y-79998882D01*
X145006312Y-79979197D01*
X145073351Y-79998881D01*
G37*
%TD.AperFunction*%
%TA.AperFunction,NonConductor*%
G36*
X149279550Y-91223030D02*
G01*
X149312342Y-91284726D01*
X149314614Y-91301493D01*
X149325656Y-91467602D01*
X149333598Y-91646969D01*
X149351500Y-92456000D01*
X149333598Y-93265030D01*
X149325656Y-93444397D01*
X149319226Y-93541127D01*
X149295138Y-93606713D01*
X149239416Y-93648865D01*
X149169750Y-93654199D01*
X149108259Y-93621023D01*
X149074467Y-93559868D01*
X149071499Y-93532902D01*
X149071499Y-92783129D01*
X149071498Y-92783123D01*
X149071497Y-92783116D01*
X149065091Y-92723517D01*
X149056059Y-92699302D01*
X149014797Y-92588671D01*
X149014793Y-92588664D01*
X148928547Y-92473455D01*
X148928544Y-92473452D01*
X148813335Y-92387206D01*
X148813328Y-92387202D01*
X148733094Y-92357277D01*
X148677160Y-92315406D01*
X148652743Y-92249941D01*
X148667595Y-92181668D01*
X148685190Y-92157121D01*
X148779979Y-92054153D01*
X148906924Y-91859849D01*
X149000157Y-91647300D01*
X149057134Y-91422305D01*
X149067311Y-91299474D01*
X149092463Y-91234294D01*
X149148865Y-91193056D01*
X149218608Y-91188856D01*
X149279550Y-91223030D01*
G37*
%TD.AperFunction*%
%TA.AperFunction,NonConductor*%
G36*
X108955739Y-91290959D02*
G01*
X108989532Y-91352113D01*
X108992500Y-91379081D01*
X108992500Y-92128870D01*
X108992501Y-92128876D01*
X108998908Y-92188483D01*
X109049202Y-92323328D01*
X109049206Y-92323335D01*
X109135452Y-92438544D01*
X109135455Y-92438547D01*
X109250664Y-92524793D01*
X109250673Y-92524798D01*
X109330904Y-92554722D01*
X109386838Y-92596593D01*
X109411256Y-92662057D01*
X109396405Y-92730330D01*
X109378802Y-92754886D01*
X109284019Y-92857849D01*
X109157075Y-93052151D01*
X109063842Y-93264699D01*
X109006866Y-93489691D01*
X109006864Y-93489703D01*
X108996687Y-93612527D01*
X108971534Y-93677712D01*
X108915132Y-93718950D01*
X108845388Y-93723148D01*
X108784447Y-93688974D01*
X108751655Y-93627277D01*
X108749386Y-93610526D01*
X108738342Y-93444377D01*
X108730401Y-93265044D01*
X108714486Y-92545753D01*
X108714486Y-92366246D01*
X108715277Y-92330500D01*
X108730401Y-91646955D01*
X108738341Y-91467630D01*
X108744774Y-91370854D01*
X108768860Y-91305271D01*
X108824582Y-91263119D01*
X108894248Y-91257784D01*
X108955739Y-91290959D01*
G37*
%TD.AperFunction*%
%TA.AperFunction,NonConductor*%
G36*
X129425726Y-89997993D02*
G01*
X129452539Y-90038641D01*
X129453970Y-90037975D01*
X129552428Y-90249118D01*
X129552429Y-90249120D01*
X129682951Y-90435527D01*
X129843855Y-90596431D01*
X129843858Y-90596433D01*
X130030263Y-90726954D01*
X130236501Y-90823125D01*
X130236506Y-90823126D01*
X130236508Y-90823127D01*
X130239061Y-90823811D01*
X130456305Y-90882021D01*
X130618227Y-90896187D01*
X130682995Y-90901854D01*
X130682997Y-90901854D01*
X130682999Y-90901854D01*
X130891755Y-90883590D01*
X130909689Y-90882021D01*
X130909689Y-90882020D01*
X130915083Y-90881549D01*
X130915261Y-90883590D01*
X130975826Y-90890328D01*
X131030067Y-90934369D01*
X131051887Y-91000744D01*
X131040333Y-91057117D01*
X130994746Y-91154877D01*
X130994741Y-91154891D01*
X130935849Y-91374682D01*
X130935847Y-91374693D01*
X130916015Y-91601378D01*
X130916015Y-91601381D01*
X130935847Y-91828066D01*
X130935849Y-91828077D01*
X130994741Y-92047868D01*
X130994744Y-92047877D01*
X131090914Y-92254112D01*
X131090915Y-92254114D01*
X131221437Y-92440521D01*
X131382341Y-92601425D01*
X131470707Y-92663299D01*
X131514332Y-92717875D01*
X131521526Y-92787374D01*
X131490004Y-92849729D01*
X131449357Y-92876545D01*
X131450023Y-92877972D01*
X131238879Y-92976430D01*
X131238877Y-92976431D01*
X131052470Y-93106953D01*
X130891566Y-93267857D01*
X130761044Y-93454264D01*
X130761043Y-93454266D01*
X130664873Y-93660501D01*
X130664870Y-93660510D01*
X130605978Y-93880301D01*
X130605976Y-93880312D01*
X130586144Y-94106997D01*
X130586144Y-94106999D01*
X130605976Y-94333685D01*
X130606449Y-94339085D01*
X130604418Y-94339262D01*
X130597647Y-94399882D01*
X130553580Y-94454102D01*
X130487194Y-94475891D01*
X130430879Y-94464335D01*
X130333114Y-94418746D01*
X130333110Y-94418745D01*
X130333106Y-94418743D01*
X130113315Y-94359851D01*
X130113311Y-94359850D01*
X130113310Y-94359850D01*
X130113309Y-94359849D01*
X130113304Y-94359849D01*
X129886620Y-94340017D01*
X129886616Y-94340017D01*
X129659931Y-94359849D01*
X129659920Y-94359851D01*
X129440129Y-94418743D01*
X129440120Y-94418746D01*
X129233885Y-94514916D01*
X129233883Y-94514917D01*
X129047476Y-94645439D01*
X128886574Y-94806341D01*
X128824698Y-94894710D01*
X128770121Y-94938334D01*
X128700622Y-94945527D01*
X128638268Y-94914005D01*
X128611462Y-94873355D01*
X128610026Y-94874025D01*
X128584417Y-94819106D01*
X128511567Y-94662880D01*
X128397868Y-94500500D01*
X128381044Y-94476472D01*
X128220140Y-94315568D01*
X128033733Y-94185046D01*
X128033731Y-94185045D01*
X127827496Y-94088875D01*
X127827487Y-94088872D01*
X127607696Y-94029980D01*
X127607692Y-94029979D01*
X127607691Y-94029979D01*
X127607690Y-94029978D01*
X127607685Y-94029978D01*
X127381001Y-94010146D01*
X127380997Y-94010146D01*
X127249565Y-94021645D01*
X127154307Y-94029979D01*
X127154306Y-94029979D01*
X127148913Y-94030451D01*
X127148735Y-94028423D01*
X127088106Y-94021645D01*
X127033889Y-93977573D01*
X127012105Y-93911186D01*
X127023660Y-93854886D01*
X127069252Y-93757116D01*
X127128148Y-93537312D01*
X127147981Y-93310620D01*
X127128148Y-93083928D01*
X127069252Y-92864124D01*
X126973081Y-92657886D01*
X126843942Y-92473455D01*
X126842558Y-92471478D01*
X126681654Y-92310574D01*
X126593288Y-92248700D01*
X126549663Y-92194123D01*
X126542469Y-92124625D01*
X126573992Y-92062270D01*
X126614644Y-92035467D01*
X126613973Y-92034028D01*
X126618880Y-92031740D01*
X126825118Y-91935569D01*
X127011523Y-91805048D01*
X127172431Y-91644140D01*
X127302952Y-91457735D01*
X127399123Y-91251497D01*
X127458019Y-91031693D01*
X127477852Y-90805001D01*
X127473018Y-90749753D01*
X127457547Y-90572915D01*
X127459586Y-90572736D01*
X127466330Y-90512161D01*
X127510376Y-90457924D01*
X127576753Y-90436109D01*
X127633113Y-90447663D01*
X127730882Y-90493254D01*
X127950686Y-90552150D01*
X128112608Y-90566316D01*
X128177376Y-90571983D01*
X128177378Y-90571983D01*
X128177380Y-90571983D01*
X128234051Y-90567024D01*
X128404070Y-90552150D01*
X128623874Y-90493254D01*
X128830112Y-90397083D01*
X129016517Y-90266562D01*
X129177425Y-90105654D01*
X129239297Y-90017289D01*
X129293873Y-89973665D01*
X129363371Y-89966471D01*
X129425726Y-89997993D01*
G37*
%TD.AperFunction*%
%TA.AperFunction,NonConductor*%
G36*
X112075541Y-91856185D02*
G01*
X112121296Y-91908989D01*
X112132466Y-91963496D01*
X112120562Y-92455999D01*
X112120562Y-92456001D01*
X112140310Y-93273044D01*
X112199511Y-94088194D01*
X112251325Y-94514916D01*
X112298024Y-94899518D01*
X112336551Y-95125091D01*
X112417212Y-95597364D01*
X112435620Y-95705139D01*
X112505426Y-96021017D01*
X112607879Y-96484626D01*
X112611978Y-96503172D01*
X112826685Y-97291753D01*
X113079241Y-98069039D01*
X113331580Y-98734402D01*
X113369054Y-98833213D01*
X113369053Y-98833213D01*
X113584207Y-99327126D01*
X113695450Y-99582499D01*
X114057665Y-100315137D01*
X114214083Y-100596431D01*
X114454859Y-101029431D01*
X114454860Y-101029432D01*
X114482787Y-101074392D01*
X114886087Y-101723680D01*
X115338926Y-102379731D01*
X115350358Y-102396292D01*
X115350358Y-102396293D01*
X115736415Y-102901515D01*
X115761478Y-102966735D01*
X115747301Y-103035151D01*
X115725569Y-103064484D01*
X115581245Y-103208807D01*
X115519925Y-103242291D01*
X115450233Y-103237307D01*
X115405885Y-103208806D01*
X115270739Y-103073660D01*
X115270732Y-103073653D01*
X115224049Y-103036033D01*
X115194015Y-103022317D01*
X115093131Y-102976244D01*
X115093133Y-102976244D01*
X114950676Y-102955763D01*
X114808219Y-102976244D01*
X114677305Y-103036031D01*
X114630610Y-103073660D01*
X113290134Y-104414138D01*
X113290128Y-104414145D01*
X113252506Y-104460830D01*
X113252505Y-104460832D01*
X113192718Y-104591745D01*
X113172237Y-104734202D01*
X113172237Y-104734203D01*
X113180425Y-104791157D01*
X113170481Y-104860316D01*
X113124725Y-104913119D01*
X113057685Y-104932803D01*
X112990646Y-104913118D01*
X112958345Y-104883013D01*
X112953598Y-104876659D01*
X112740762Y-104591745D01*
X112541857Y-104325481D01*
X112437636Y-104179331D01*
X112032974Y-103584455D01*
X111935312Y-103433826D01*
X111877863Y-103340773D01*
X111557361Y-102821636D01*
X111466456Y-102666831D01*
X111115973Y-102038557D01*
X111071065Y-101953696D01*
X111031978Y-101879833D01*
X110841765Y-101500312D01*
X110709642Y-101236693D01*
X110658753Y-101129293D01*
X110632763Y-101074441D01*
X110339156Y-100417597D01*
X110269546Y-100252137D01*
X110005289Y-99582968D01*
X109943065Y-99414590D01*
X109908248Y-99313556D01*
X109708654Y-98734356D01*
X109653946Y-98563411D01*
X109449862Y-97873503D01*
X109408680Y-97722042D01*
X109402752Y-97700240D01*
X109348494Y-97481708D01*
X109229392Y-97002005D01*
X109190004Y-96826883D01*
X109054376Y-96154755D01*
X109047689Y-96121620D01*
X109016085Y-95944921D01*
X108961825Y-95597364D01*
X108905108Y-95234068D01*
X108894950Y-95157989D01*
X108881347Y-95056118D01*
X108839446Y-94678872D01*
X108801927Y-94341080D01*
X108793570Y-94246907D01*
X108786060Y-94162273D01*
X108778852Y-94053826D01*
X108794046Y-93985633D01*
X108843698Y-93936477D01*
X108912045Y-93921968D01*
X108977386Y-93946713D01*
X109018976Y-94002856D01*
X109022783Y-94015165D01*
X109063841Y-94177295D01*
X109063841Y-94177296D01*
X109157075Y-94389848D01*
X109284016Y-94584147D01*
X109284019Y-94584151D01*
X109284021Y-94584153D01*
X109441216Y-94754913D01*
X109441219Y-94754915D01*
X109441222Y-94754918D01*
X109624365Y-94897464D01*
X109624372Y-94897468D01*
X109624374Y-94897470D01*
X109786147Y-94985017D01*
X109835738Y-95034236D01*
X109849726Y-95075466D01*
X109920578Y-95542300D01*
X109943676Y-95694490D01*
X110070736Y-96352946D01*
X110081326Y-96407822D01*
X110074700Y-96477377D01*
X110061148Y-96502439D01*
X109991236Y-96602285D01*
X109895064Y-96808524D01*
X109895061Y-96808533D01*
X109836169Y-97028324D01*
X109836167Y-97028335D01*
X109816335Y-97255020D01*
X109816335Y-97255023D01*
X109836167Y-97481708D01*
X109836169Y-97481719D01*
X109895061Y-97701510D01*
X109895064Y-97701519D01*
X109991234Y-97907754D01*
X109991235Y-97907756D01*
X110121757Y-98094163D01*
X110282661Y-98255067D01*
X110282664Y-98255069D01*
X110469069Y-98385590D01*
X110675307Y-98481761D01*
X110895111Y-98540657D01*
X111057033Y-98554823D01*
X111121801Y-98560490D01*
X111121803Y-98560490D01*
X111121805Y-98560490D01*
X111178476Y-98555531D01*
X111348495Y-98540657D01*
X111568299Y-98481761D01*
X111774537Y-98385590D01*
X111960942Y-98255069D01*
X112121850Y-98094161D01*
X112252371Y-97907756D01*
X112348542Y-97701518D01*
X112407438Y-97481714D01*
X112427271Y-97255022D01*
X112407438Y-97028330D01*
X112348542Y-96808526D01*
X112252371Y-96602288D01*
X112121850Y-96415883D01*
X112121848Y-96415880D01*
X111960944Y-96254976D01*
X111774537Y-96124454D01*
X111774535Y-96124453D01*
X111568300Y-96028283D01*
X111568291Y-96028280D01*
X111396516Y-95982254D01*
X111336855Y-95945889D01*
X111307349Y-95888404D01*
X111305531Y-95879901D01*
X111294517Y-95828382D01*
X111171818Y-95116245D01*
X111154046Y-94980961D01*
X111164831Y-94911930D01*
X111200825Y-94866959D01*
X111344784Y-94754913D01*
X111501979Y-94584153D01*
X111628924Y-94389849D01*
X111722157Y-94177300D01*
X111779134Y-93952305D01*
X111779342Y-93949793D01*
X111798300Y-93721006D01*
X111798300Y-93720993D01*
X111779135Y-93489702D01*
X111779133Y-93489691D01*
X111722157Y-93264699D01*
X111628924Y-93052151D01*
X111501983Y-92857852D01*
X111501980Y-92857849D01*
X111501979Y-92857847D01*
X111407195Y-92754884D01*
X111376275Y-92692232D01*
X111384135Y-92622806D01*
X111428283Y-92568651D01*
X111455095Y-92554722D01*
X111535326Y-92524798D01*
X111535326Y-92524797D01*
X111535331Y-92524796D01*
X111650546Y-92438546D01*
X111736796Y-92323331D01*
X111787091Y-92188483D01*
X111793500Y-92128873D01*
X111793500Y-91960500D01*
X111813185Y-91893461D01*
X111865989Y-91847706D01*
X111917500Y-91836500D01*
X112008502Y-91836500D01*
X112075541Y-91856185D01*
G37*
%TD.AperFunction*%
%TA.AperFunction,NonConductor*%
G36*
X146213540Y-94396185D02*
G01*
X146259295Y-94448989D01*
X146270501Y-94500500D01*
X146270501Y-94678876D01*
X146276908Y-94738483D01*
X146327202Y-94873328D01*
X146327206Y-94873335D01*
X146413452Y-94988544D01*
X146413455Y-94988547D01*
X146528664Y-95074793D01*
X146528671Y-95074797D01*
X146663517Y-95125091D01*
X146663516Y-95125091D01*
X146670444Y-95125835D01*
X146723127Y-95131500D01*
X148618872Y-95131499D01*
X148678483Y-95125091D01*
X148813331Y-95074796D01*
X148928546Y-94988546D01*
X148962984Y-94942541D01*
X149018917Y-94900672D01*
X149088609Y-94895688D01*
X149149932Y-94929173D01*
X149183416Y-94990496D01*
X149185492Y-95030541D01*
X149182652Y-95056118D01*
X149158889Y-95234081D01*
X149047914Y-95944921D01*
X149016309Y-96121622D01*
X148873995Y-96826883D01*
X148834605Y-97002012D01*
X148661243Y-97700256D01*
X148614133Y-97873515D01*
X148410053Y-98563411D01*
X148355337Y-98734380D01*
X148120934Y-99414590D01*
X148058710Y-99582968D01*
X147794453Y-100252137D01*
X147724833Y-100417621D01*
X147431248Y-101074415D01*
X147354357Y-101236693D01*
X147032021Y-101879833D01*
X146948026Y-102038557D01*
X146597543Y-102666831D01*
X146506643Y-102821629D01*
X146417059Y-102966735D01*
X146128687Y-103433826D01*
X146031025Y-103584455D01*
X145626363Y-104179331D01*
X145522142Y-104325481D01*
X145091561Y-104901878D01*
X144980973Y-105043282D01*
X144525315Y-105600070D01*
X144473637Y-105660441D01*
X144415087Y-105698569D01*
X144345219Y-105698991D01*
X144286214Y-105661571D01*
X144256807Y-105598192D01*
X144266333Y-105528974D01*
X144275628Y-105511983D01*
X144342176Y-105410123D01*
X144342177Y-105410122D01*
X144435410Y-105197573D01*
X144492387Y-104972578D01*
X144492924Y-104966099D01*
X144511553Y-104741279D01*
X144511553Y-104741266D01*
X144492388Y-104509975D01*
X144492386Y-104509964D01*
X144468121Y-104414145D01*
X144435410Y-104284973D01*
X144435408Y-104284969D01*
X144433747Y-104280130D01*
X144435625Y-104279485D01*
X144427811Y-104218639D01*
X144450424Y-104164602D01*
X144518310Y-104072424D01*
X144819445Y-103663528D01*
X145223115Y-103066813D01*
X145276983Y-103022317D01*
X145311228Y-103013717D01*
X145311203Y-103013573D01*
X145313220Y-103013217D01*
X145315015Y-103012766D01*
X145316531Y-103012634D01*
X145536335Y-102953738D01*
X145742573Y-102857567D01*
X145928978Y-102727046D01*
X146089886Y-102566138D01*
X146220407Y-102379733D01*
X146316578Y-102173495D01*
X146375474Y-101953691D01*
X146395307Y-101726999D01*
X146375474Y-101500307D01*
X146316578Y-101280503D01*
X146220407Y-101074265D01*
X146089886Y-100887860D01*
X146089884Y-100887857D01*
X145928980Y-100726953D01*
X145742573Y-100596431D01*
X145742571Y-100596430D01*
X145536336Y-100500260D01*
X145536327Y-100500257D01*
X145316536Y-100441365D01*
X145316532Y-100441364D01*
X145316531Y-100441364D01*
X145316530Y-100441363D01*
X145316525Y-100441363D01*
X145089841Y-100421531D01*
X145089837Y-100421531D01*
X144863152Y-100441363D01*
X144863141Y-100441365D01*
X144643350Y-100500257D01*
X144643341Y-100500260D01*
X144437106Y-100596430D01*
X144437104Y-100596431D01*
X144250697Y-100726953D01*
X144089793Y-100887857D01*
X143959271Y-101074264D01*
X143959270Y-101074266D01*
X143863100Y-101280501D01*
X143863097Y-101280510D01*
X143804205Y-101500301D01*
X143804203Y-101500312D01*
X143784371Y-101726997D01*
X143784371Y-101727000D01*
X143804203Y-101953685D01*
X143804205Y-101953696D01*
X143863097Y-102173487D01*
X143863100Y-102173496D01*
X143959270Y-102379731D01*
X143959271Y-102379733D01*
X143989893Y-102423466D01*
X144012221Y-102489673D01*
X143995209Y-102557440D01*
X143992395Y-102561999D01*
X143958931Y-102613664D01*
X143542137Y-103203982D01*
X143458050Y-103313500D01*
X143401610Y-103354686D01*
X143339287Y-103360294D01*
X143222302Y-103340773D01*
X142990204Y-103340773D01*
X142944417Y-103348413D01*
X142761268Y-103378975D01*
X142541757Y-103454334D01*
X142541748Y-103454337D01*
X142337624Y-103564804D01*
X142337618Y-103564808D01*
X142154475Y-103707354D01*
X142154472Y-103707357D01*
X141997269Y-103878125D01*
X141870328Y-104072424D01*
X141777095Y-104284972D01*
X141720119Y-104509964D01*
X141720117Y-104509976D01*
X141703429Y-104711376D01*
X141678276Y-104776561D01*
X141621874Y-104817799D01*
X141552130Y-104821997D01*
X141528341Y-104813930D01*
X141452657Y-104779366D01*
X141452659Y-104779366D01*
X141310202Y-104758885D01*
X141167745Y-104779366D01*
X141036831Y-104839153D01*
X140990141Y-104876778D01*
X140880113Y-104986806D01*
X140818790Y-105020290D01*
X140749098Y-105015306D01*
X140704751Y-104986805D01*
X140642108Y-104924162D01*
X140608623Y-104862839D01*
X140613607Y-104793147D01*
X140643169Y-104747753D01*
X141105155Y-104296800D01*
X141133799Y-104268840D01*
X141133800Y-104268837D01*
X141133807Y-104268832D01*
X141354615Y-104031406D01*
X141690392Y-103670360D01*
X142193824Y-103073653D01*
X142217414Y-103045692D01*
X142217416Y-103045688D01*
X142217423Y-103045681D01*
X142713642Y-102396293D01*
X142713642Y-102396292D01*
X142725074Y-102379731D01*
X143177913Y-101723680D01*
X143581213Y-101074392D01*
X143609140Y-101029432D01*
X143609141Y-101029431D01*
X143849917Y-100596431D01*
X144006335Y-100315137D01*
X144368550Y-99582499D01*
X144479793Y-99327126D01*
X144694947Y-98833213D01*
X144694946Y-98833213D01*
X144732420Y-98734402D01*
X144984759Y-98069039D01*
X145237315Y-97291753D01*
X145452022Y-96503172D01*
X145456121Y-96484626D01*
X145558574Y-96021017D01*
X145628380Y-95705139D01*
X145646788Y-95597364D01*
X145727449Y-95125091D01*
X145765976Y-94899518D01*
X145816240Y-94485551D01*
X145843862Y-94421375D01*
X145901796Y-94382319D01*
X145939336Y-94376500D01*
X146146501Y-94376500D01*
X146213540Y-94396185D01*
G37*
%TD.AperFunction*%
%TA.AperFunction,NonConductor*%
G36*
X144144428Y-105799801D02*
G01*
X144194753Y-105848270D01*
X144210885Y-105916251D01*
X144187703Y-105982163D01*
X144179452Y-105992431D01*
X143928763Y-106272507D01*
X143806075Y-106403618D01*
X143303041Y-106917907D01*
X143174669Y-107043472D01*
X142649362Y-107535021D01*
X142594134Y-107584453D01*
X142531054Y-107614496D01*
X142461744Y-107605666D01*
X142408211Y-107560766D01*
X142387451Y-107494052D01*
X142406055Y-107426705D01*
X142423754Y-107404377D01*
X142629030Y-107199101D01*
X142970751Y-106857380D01*
X143008371Y-106810697D01*
X143068159Y-106679781D01*
X143088641Y-106537324D01*
X143068159Y-106394867D01*
X143032727Y-106317284D01*
X143022784Y-106248126D01*
X143051809Y-106184571D01*
X143110587Y-106146796D01*
X143145522Y-106141773D01*
X143222301Y-106141773D01*
X143222302Y-106141773D01*
X143451234Y-106103571D01*
X143670756Y-106028209D01*
X143874879Y-105917743D01*
X144010895Y-105811877D01*
X144075888Y-105786235D01*
X144144428Y-105799801D01*
G37*
%TD.AperFunction*%
%TA.AperFunction,NonConductor*%
G36*
X114099481Y-105868242D02*
G01*
X114121809Y-105885941D01*
X114377642Y-106141773D01*
X114630620Y-106394751D01*
X114677303Y-106432371D01*
X114808219Y-106492159D01*
X114808218Y-106492159D01*
X114826125Y-106494733D01*
X114950676Y-106512641D01*
X115093133Y-106492159D01*
X115168818Y-106457594D01*
X115237973Y-106447651D01*
X115301529Y-106476675D01*
X115339304Y-106535453D01*
X115343903Y-106560149D01*
X115360591Y-106761549D01*
X115360593Y-106761561D01*
X115417569Y-106986553D01*
X115510802Y-107199101D01*
X115631127Y-107383273D01*
X115637748Y-107393406D01*
X115686172Y-107446009D01*
X115717093Y-107508661D01*
X115709233Y-107578087D01*
X115665086Y-107632242D01*
X115598668Y-107653933D01*
X115531067Y-107636272D01*
X115512241Y-107622383D01*
X115462752Y-107578087D01*
X115414638Y-107535021D01*
X114889346Y-107043486D01*
X114810262Y-106966133D01*
X114760958Y-106917907D01*
X114257924Y-106403618D01*
X114177137Y-106317285D01*
X114135229Y-106272498D01*
X113941733Y-106056320D01*
X113911690Y-105993241D01*
X113920519Y-105923932D01*
X113965419Y-105870399D01*
X114032133Y-105849638D01*
X114099481Y-105868242D01*
G37*
%TD.AperFunction*%
%TA.AperFunction,NonConductor*%
G36*
X129820832Y-76870490D02*
G01*
X129823967Y-76870649D01*
X130068364Y-76889260D01*
X130609233Y-76930449D01*
X130612326Y-76930763D01*
X131393561Y-77030261D01*
X131396645Y-77030733D01*
X132171853Y-77169675D01*
X132174875Y-77170296D01*
X132942030Y-77348318D01*
X132945042Y-77349097D01*
X133702219Y-77565753D01*
X133705192Y-77566686D01*
X134450406Y-77821408D01*
X134453307Y-77822482D01*
X135184671Y-78114625D01*
X135187534Y-78115853D01*
X135903160Y-78444662D01*
X135905946Y-78446030D01*
X136603988Y-78810658D01*
X136606735Y-78812182D01*
X137285409Y-79211694D01*
X137288041Y-79213334D01*
X137945616Y-79646713D01*
X137948174Y-79648493D01*
X138582959Y-80114623D01*
X138585437Y-80116541D01*
X138590714Y-80120844D01*
X139195770Y-80614204D01*
X139198154Y-80616250D01*
X139782517Y-81144202D01*
X139784794Y-81146367D01*
X140341632Y-81703205D01*
X140343797Y-81705482D01*
X140871757Y-82289854D01*
X140873796Y-82292229D01*
X140883134Y-82303680D01*
X140886356Y-82308004D01*
X140891785Y-82315992D01*
X140891787Y-82315994D01*
X140896294Y-82321106D01*
X140903164Y-82328246D01*
X141347693Y-82873417D01*
X141371453Y-82902556D01*
X141373376Y-82905040D01*
X141839506Y-83539825D01*
X141841292Y-83542391D01*
X142274658Y-84199947D01*
X142276305Y-84202590D01*
X142675817Y-84881264D01*
X142677341Y-84884011D01*
X143041969Y-85582053D01*
X143043344Y-85584856D01*
X143315685Y-86177583D01*
X143372135Y-86300441D01*
X143373374Y-86303328D01*
X143665509Y-87034671D01*
X143666600Y-87037617D01*
X143921309Y-87782795D01*
X143922250Y-87785793D01*
X144138898Y-88542944D01*
X144139685Y-88545986D01*
X144317697Y-89313098D01*
X144318330Y-89316176D01*
X144457265Y-90091353D01*
X144457741Y-90094459D01*
X144557233Y-90875650D01*
X144557551Y-90878776D01*
X144617350Y-91664030D01*
X144617509Y-91667166D01*
X144617793Y-91678356D01*
X144599815Y-91745873D01*
X144548188Y-91792952D01*
X144493833Y-91805500D01*
X143708675Y-91805500D01*
X143641636Y-91785815D01*
X143595881Y-91733011D01*
X143584675Y-91681500D01*
X143584675Y-91358129D01*
X143584674Y-91358123D01*
X143584673Y-91358116D01*
X143578587Y-91301493D01*
X143578267Y-91298516D01*
X143527973Y-91163671D01*
X143527969Y-91163664D01*
X143441723Y-91048455D01*
X143441720Y-91048452D01*
X143326511Y-90962206D01*
X143326504Y-90962202D01*
X143191658Y-90911908D01*
X143191659Y-90911908D01*
X143132059Y-90905501D01*
X143132057Y-90905500D01*
X143132049Y-90905500D01*
X143132040Y-90905500D01*
X140936305Y-90905500D01*
X140936299Y-90905501D01*
X140876692Y-90911908D01*
X140741847Y-90962202D01*
X140741840Y-90962206D01*
X140626631Y-91048452D01*
X140626628Y-91048455D01*
X140540382Y-91163664D01*
X140540378Y-91163671D01*
X140490084Y-91298517D01*
X140483677Y-91358116D01*
X140483677Y-91358123D01*
X140483676Y-91358135D01*
X140483676Y-93553870D01*
X140483677Y-93553876D01*
X140490084Y-93613483D01*
X140540378Y-93748328D01*
X140540382Y-93748335D01*
X140626628Y-93863544D01*
X140626631Y-93863547D01*
X140741840Y-93949793D01*
X140741847Y-93949797D01*
X140876693Y-94000091D01*
X140876692Y-94000091D01*
X140883620Y-94000835D01*
X140936303Y-94006500D01*
X143132048Y-94006499D01*
X143191659Y-94000091D01*
X143326507Y-93949796D01*
X143441722Y-93863546D01*
X143527972Y-93748331D01*
X143578267Y-93613483D01*
X143584676Y-93553873D01*
X143584676Y-93230500D01*
X143604361Y-93163461D01*
X143657165Y-93117706D01*
X143708676Y-93106500D01*
X144493833Y-93106500D01*
X144560872Y-93126185D01*
X144606627Y-93178989D01*
X144617793Y-93233644D01*
X144617509Y-93244833D01*
X144617350Y-93247969D01*
X144557551Y-94033223D01*
X144557233Y-94036349D01*
X144457741Y-94817540D01*
X144457265Y-94820646D01*
X144318330Y-95595823D01*
X144317697Y-95598901D01*
X144139685Y-96366013D01*
X144138898Y-96369055D01*
X143922250Y-97126206D01*
X143921309Y-97129204D01*
X143666600Y-97874382D01*
X143665509Y-97877328D01*
X143373374Y-98608671D01*
X143372135Y-98611558D01*
X143043353Y-99327126D01*
X143041969Y-99329946D01*
X142677341Y-100027988D01*
X142675817Y-100030735D01*
X142276305Y-100709409D01*
X142274643Y-100712076D01*
X141841301Y-101369595D01*
X141839506Y-101372174D01*
X141373376Y-102006959D01*
X141371453Y-102009443D01*
X140873795Y-102619770D01*
X140871749Y-102622154D01*
X140343797Y-103206517D01*
X140341632Y-103208794D01*
X139784794Y-103765632D01*
X139782517Y-103767797D01*
X139198154Y-104295749D01*
X139195770Y-104297795D01*
X138585443Y-104795453D01*
X138582959Y-104797376D01*
X137948174Y-105263506D01*
X137945595Y-105265301D01*
X137769014Y-105381678D01*
X137346041Y-105660441D01*
X137288076Y-105698643D01*
X137285409Y-105700305D01*
X136606735Y-106099817D01*
X136603988Y-106101341D01*
X135905946Y-106465969D01*
X135903126Y-106467353D01*
X135187558Y-106796135D01*
X135184671Y-106797374D01*
X134453328Y-107089509D01*
X134450382Y-107090600D01*
X133705204Y-107345309D01*
X133702206Y-107346250D01*
X132945055Y-107562898D01*
X132942013Y-107563685D01*
X132174901Y-107741697D01*
X132171823Y-107742330D01*
X131396646Y-107881265D01*
X131393540Y-107881741D01*
X130612349Y-107981233D01*
X130609223Y-107981551D01*
X129823967Y-108041350D01*
X129820830Y-108041509D01*
X129033571Y-108061460D01*
X129030429Y-108061460D01*
X128243169Y-108041509D01*
X128240032Y-108041350D01*
X127454776Y-107981551D01*
X127451650Y-107981233D01*
X126670459Y-107881741D01*
X126667353Y-107881265D01*
X125892176Y-107742330D01*
X125889098Y-107741697D01*
X125121986Y-107563685D01*
X125118944Y-107562898D01*
X124361793Y-107346250D01*
X124358795Y-107345309D01*
X123613617Y-107090600D01*
X123610671Y-107089509D01*
X122879328Y-106797374D01*
X122876441Y-106796135D01*
X122812130Y-106766586D01*
X122160856Y-106467344D01*
X122158053Y-106465969D01*
X121460011Y-106101341D01*
X121457264Y-106099817D01*
X120778590Y-105700305D01*
X120775947Y-105698658D01*
X120118391Y-105265292D01*
X120115825Y-105263506D01*
X119481040Y-104797376D01*
X119478556Y-104795453D01*
X118868229Y-104297795D01*
X118865845Y-104295749D01*
X118281482Y-103767797D01*
X118279205Y-103765632D01*
X117722367Y-103208794D01*
X117720202Y-103206517D01*
X117192250Y-102622154D01*
X117190204Y-102619770D01*
X116770007Y-102104441D01*
X116692541Y-102009437D01*
X116690623Y-102006959D01*
X116224493Y-101372174D01*
X116222713Y-101369616D01*
X115789334Y-100712041D01*
X115787694Y-100709409D01*
X115388182Y-100030735D01*
X115386658Y-100027988D01*
X115022030Y-99329946D01*
X115020662Y-99327160D01*
X114691860Y-98611548D01*
X114690635Y-98608696D01*
X114679538Y-98580914D01*
X114672950Y-98511355D01*
X114705015Y-98449277D01*
X114765551Y-98414390D01*
X114835339Y-98417768D01*
X114850983Y-98424431D01*
X114853512Y-98425720D01*
X115036355Y-98474712D01*
X115067804Y-98477187D01*
X115114976Y-98480900D01*
X115114978Y-98480899D01*
X115114979Y-98480900D01*
X116270603Y-98480899D01*
X117041021Y-98480899D01*
X117067228Y-98478836D01*
X117119645Y-98474712D01*
X117302488Y-98425720D01*
X117431008Y-98360235D01*
X117471146Y-98339785D01*
X117471147Y-98339783D01*
X117471149Y-98339783D01*
X117618257Y-98220657D01*
X117737383Y-98073549D01*
X117823320Y-97904888D01*
X117872312Y-97722045D01*
X117878500Y-97643421D01*
X117878499Y-96717380D01*
X117872312Y-96638755D01*
X117823320Y-96455912D01*
X117770856Y-96352946D01*
X117737385Y-96287253D01*
X117704554Y-96246711D01*
X117618257Y-96140143D01*
X117531958Y-96070259D01*
X117471146Y-96021014D01*
X117345868Y-95957183D01*
X117302488Y-95935080D01*
X117128289Y-95888404D01*
X117119642Y-95886087D01*
X117041024Y-95879900D01*
X117041021Y-95879900D01*
X115885396Y-95879900D01*
X115114978Y-95879901D01*
X115114979Y-95879901D01*
X115036356Y-95886087D01*
X114853512Y-95935080D01*
X114684853Y-96021014D01*
X114537743Y-96140143D01*
X114418614Y-96287253D01*
X114332680Y-96455912D01*
X114283687Y-96638756D01*
X114283687Y-96638757D01*
X114277500Y-96717376D01*
X114277500Y-96716519D01*
X114257815Y-96783558D01*
X114205011Y-96829313D01*
X114135853Y-96839257D01*
X114072297Y-96810232D01*
X114034523Y-96751454D01*
X114034284Y-96750631D01*
X113974688Y-96542352D01*
X113925097Y-96369042D01*
X113924314Y-96366013D01*
X113912630Y-96315661D01*
X113746296Y-95598875D01*
X113745675Y-95595853D01*
X113606733Y-94820645D01*
X113606261Y-94817561D01*
X113506763Y-94036326D01*
X113506448Y-94033223D01*
X113506082Y-94028423D01*
X113447923Y-93264699D01*
X113446649Y-93247967D01*
X113446490Y-93244830D01*
X113446127Y-93230500D01*
X113426539Y-92457538D01*
X113426539Y-92454461D01*
X113446490Y-91667165D01*
X113446649Y-91664032D01*
X113470402Y-91352113D01*
X113506449Y-90878762D01*
X113506763Y-90875677D01*
X113606262Y-90094432D01*
X113606734Y-90091353D01*
X113615035Y-90045037D01*
X113745676Y-89316138D01*
X113746294Y-89313132D01*
X113924320Y-88545959D01*
X113925095Y-88542967D01*
X114034285Y-88161361D01*
X114071652Y-88102327D01*
X114135005Y-88072864D01*
X114204231Y-88082329D01*
X114257350Y-88127718D01*
X114277497Y-88194620D01*
X114277500Y-88195398D01*
X114277499Y-88194583D01*
X114277501Y-88194621D01*
X114283687Y-88273243D01*
X114314747Y-88389162D01*
X114332680Y-88456088D01*
X114353076Y-88496117D01*
X114418614Y-88624746D01*
X114467859Y-88685558D01*
X114537743Y-88771857D01*
X114597227Y-88820026D01*
X114684853Y-88890985D01*
X114768371Y-88933538D01*
X114853512Y-88976920D01*
X115036355Y-89025912D01*
X115114979Y-89032100D01*
X115328500Y-89032099D01*
X115395539Y-89051783D01*
X115441294Y-89104587D01*
X115452500Y-89156099D01*
X115452500Y-89452255D01*
X115450775Y-89467872D01*
X115451061Y-89467899D01*
X115450326Y-89475665D01*
X115452500Y-89544814D01*
X115452500Y-89574343D01*
X115452501Y-89574360D01*
X115453368Y-89581231D01*
X115453826Y-89587050D01*
X115455290Y-89633624D01*
X115455291Y-89633627D01*
X115460880Y-89652867D01*
X115464824Y-89671911D01*
X115467336Y-89691791D01*
X115484490Y-89735119D01*
X115486382Y-89740647D01*
X115497961Y-89780501D01*
X115499382Y-89785390D01*
X115500980Y-89788093D01*
X115509580Y-89802634D01*
X115518138Y-89820103D01*
X115525514Y-89838732D01*
X115552898Y-89876423D01*
X115556106Y-89881307D01*
X115579827Y-89921416D01*
X115579833Y-89921424D01*
X115593990Y-89935580D01*
X115606628Y-89950376D01*
X115618405Y-89966586D01*
X115618406Y-89966587D01*
X115654309Y-89996288D01*
X115658620Y-90000210D01*
X116149035Y-90490625D01*
X116602229Y-90943819D01*
X116635714Y-91005142D01*
X116630730Y-91074834D01*
X116588858Y-91130767D01*
X116523394Y-91155184D01*
X116514548Y-91155500D01*
X115114978Y-91155501D01*
X115114979Y-91155501D01*
X115036356Y-91161687D01*
X114853512Y-91210680D01*
X114684853Y-91296614D01*
X114537743Y-91415743D01*
X114418614Y-91562853D01*
X114359764Y-91678356D01*
X114332680Y-91731512D01*
X114283688Y-91914355D01*
X114277500Y-91992979D01*
X114277501Y-92456000D01*
X114277501Y-92919021D01*
X114283687Y-92997643D01*
X114311431Y-93101185D01*
X114332680Y-93180488D01*
X114354783Y-93223868D01*
X114418614Y-93349146D01*
X114467859Y-93409958D01*
X114537743Y-93496257D01*
X114611222Y-93555759D01*
X114684853Y-93615385D01*
X114750563Y-93648865D01*
X114853512Y-93701320D01*
X115036355Y-93750312D01*
X115067804Y-93752787D01*
X115114976Y-93756500D01*
X115114978Y-93756499D01*
X115114979Y-93756500D01*
X116270603Y-93756499D01*
X117041021Y-93756499D01*
X117067228Y-93754436D01*
X117119645Y-93750312D01*
X117302488Y-93701320D01*
X117447806Y-93627277D01*
X117471146Y-93615385D01*
X117471147Y-93615383D01*
X117471149Y-93615383D01*
X117618257Y-93496257D01*
X117737383Y-93349149D01*
X117757015Y-93310620D01*
X117778803Y-93267857D01*
X117823320Y-93180488D01*
X117825217Y-93173409D01*
X117861580Y-93113748D01*
X117924427Y-93083217D01*
X117944992Y-93081500D01*
X120339163Y-93081500D01*
X120406202Y-93101185D01*
X120451957Y-93153989D01*
X120453722Y-93158043D01*
X120455396Y-93162084D01*
X120455398Y-93162088D01*
X120582913Y-93370173D01*
X120582914Y-93370176D01*
X120582917Y-93370179D01*
X120741417Y-93555759D01*
X120864057Y-93660503D01*
X120926999Y-93714261D01*
X120927001Y-93714261D01*
X120946681Y-93726321D01*
X121135086Y-93841777D01*
X121360557Y-93935169D01*
X121360554Y-93935169D01*
X121360560Y-93935170D01*
X121360564Y-93935172D01*
X121597874Y-93992146D01*
X121841176Y-94011294D01*
X122084478Y-93992146D01*
X122321788Y-93935172D01*
X122547265Y-93841777D01*
X122755355Y-93714259D01*
X122940935Y-93555759D01*
X123099435Y-93370179D01*
X123226953Y-93162089D01*
X123320348Y-92936612D01*
X123377322Y-92699302D01*
X123396470Y-92456000D01*
X123377322Y-92212698D01*
X123320348Y-91975388D01*
X123320345Y-91975380D01*
X123226953Y-91749910D01*
X123146909Y-91619291D01*
X123128664Y-91551845D01*
X123149780Y-91485243D01*
X123203552Y-91440629D01*
X123252636Y-91430501D01*
X124958196Y-91430501D01*
X125025235Y-91450186D01*
X125059769Y-91483375D01*
X125121928Y-91572148D01*
X125131852Y-91586321D01*
X125154179Y-91652528D01*
X125152846Y-91676221D01*
X125094724Y-92055617D01*
X125087751Y-92193109D01*
X125064695Y-92259066D01*
X125035037Y-92288400D01*
X125003381Y-92310566D01*
X125003376Y-92310571D01*
X124842464Y-92471482D01*
X124711945Y-92657885D01*
X124711944Y-92657887D01*
X124615774Y-92864122D01*
X124615771Y-92864131D01*
X124556879Y-93083922D01*
X124556877Y-93083933D01*
X124537045Y-93310618D01*
X124537045Y-93310621D01*
X124556877Y-93537306D01*
X124556879Y-93537317D01*
X124615771Y-93757108D01*
X124615774Y-93757117D01*
X124711944Y-93963352D01*
X124711945Y-93963354D01*
X124842467Y-94149761D01*
X125003371Y-94310665D01*
X125003374Y-94310667D01*
X125189779Y-94441188D01*
X125396017Y-94537359D01*
X125396022Y-94537360D01*
X125396024Y-94537361D01*
X125427941Y-94545913D01*
X125615821Y-94596255D01*
X125652276Y-94599444D01*
X125717345Y-94624896D01*
X125746700Y-94657380D01*
X125783761Y-94716838D01*
X126029149Y-95033853D01*
X126029154Y-95033859D01*
X126055667Y-95061751D01*
X126087588Y-95123901D01*
X126089321Y-95157989D01*
X126075531Y-95315611D01*
X126075531Y-95315615D01*
X126095363Y-95542300D01*
X126095365Y-95542311D01*
X126154257Y-95762102D01*
X126154260Y-95762111D01*
X126250430Y-95968346D01*
X126250431Y-95968348D01*
X126380953Y-96154755D01*
X126541857Y-96315659D01*
X126541860Y-96315661D01*
X126728265Y-96446182D01*
X126934503Y-96542353D01*
X127154307Y-96601249D01*
X127316229Y-96615415D01*
X127380997Y-96621082D01*
X127380999Y-96621082D01*
X127381001Y-96621082D01*
X127437672Y-96616123D01*
X127607691Y-96601249D01*
X127827495Y-96542353D01*
X128033733Y-96446182D01*
X128166888Y-96352945D01*
X128233094Y-96330619D01*
X128262969Y-96333058D01*
X128432712Y-96367942D01*
X128776928Y-96402945D01*
X128841632Y-96429311D01*
X128865958Y-96455186D01*
X128886571Y-96484625D01*
X129047476Y-96645530D01*
X129047479Y-96645532D01*
X129233884Y-96776053D01*
X129440122Y-96872224D01*
X129659926Y-96931120D01*
X129821848Y-96945286D01*
X129886616Y-96950953D01*
X129886618Y-96950953D01*
X129886620Y-96950953D01*
X129943291Y-96945994D01*
X130113310Y-96931120D01*
X130333114Y-96872224D01*
X130539352Y-96776053D01*
X130725757Y-96645532D01*
X130886665Y-96484624D01*
X131017186Y-96298219D01*
X131113357Y-96091981D01*
X131172253Y-95872177D01*
X131175597Y-95833944D01*
X131201048Y-95768877D01*
X131228285Y-95742978D01*
X131454458Y-95585558D01*
X131638276Y-95427754D01*
X131701962Y-95399024D01*
X131729850Y-95398314D01*
X131844176Y-95408316D01*
X131891611Y-95412467D01*
X131891612Y-95412467D01*
X131891614Y-95412467D01*
X131948285Y-95407508D01*
X132118304Y-95392634D01*
X132338108Y-95333738D01*
X132544346Y-95237567D01*
X132730751Y-95107046D01*
X132891659Y-94946138D01*
X133022180Y-94759733D01*
X133118351Y-94553495D01*
X133177247Y-94333691D01*
X133197080Y-94106999D01*
X133177247Y-93880307D01*
X133118351Y-93660503D01*
X133022180Y-93454265D01*
X132932146Y-93325683D01*
X132909820Y-93259478D01*
X132911151Y-93235789D01*
X132969275Y-92856382D01*
X132976247Y-92718885D01*
X132999301Y-92652931D01*
X133028965Y-92623592D01*
X133060622Y-92601427D01*
X133221530Y-92440519D01*
X133352051Y-92254114D01*
X133448222Y-92047876D01*
X133507118Y-91828072D01*
X133526951Y-91601380D01*
X133507118Y-91374688D01*
X133457325Y-91188856D01*
X133448224Y-91154891D01*
X133448221Y-91154882D01*
X133398593Y-91048455D01*
X133352051Y-90948646D01*
X133221530Y-90762241D01*
X133221528Y-90762238D01*
X133060624Y-90601334D01*
X132874217Y-90470812D01*
X132874215Y-90470811D01*
X132667980Y-90374641D01*
X132667971Y-90374638D01*
X132448180Y-90315746D01*
X132448171Y-90315744D01*
X132411720Y-90312555D01*
X132346652Y-90287101D01*
X132317298Y-90254619D01*
X132280237Y-90195160D01*
X132034846Y-89878141D01*
X132008327Y-89850243D01*
X131976407Y-89788093D01*
X131974674Y-89754011D01*
X131988465Y-89596386D01*
X131986536Y-89574343D01*
X131981727Y-89519366D01*
X131968632Y-89369694D01*
X131909736Y-89149890D01*
X131813565Y-88943652D01*
X131683044Y-88757247D01*
X131683042Y-88757244D01*
X131522138Y-88596340D01*
X131335731Y-88465818D01*
X131335729Y-88465817D01*
X131129494Y-88369647D01*
X131129485Y-88369644D01*
X130909694Y-88310752D01*
X130909690Y-88310751D01*
X130909689Y-88310751D01*
X130909688Y-88310750D01*
X130909683Y-88310750D01*
X130682999Y-88290918D01*
X130682995Y-88290918D01*
X130456310Y-88310750D01*
X130456299Y-88310752D01*
X130236508Y-88369644D01*
X130236499Y-88369647D01*
X130030264Y-88465817D01*
X129897107Y-88559053D01*
X129830901Y-88581380D01*
X129801025Y-88578939D01*
X129631286Y-88544057D01*
X129287067Y-88509054D01*
X129222363Y-88482688D01*
X129198037Y-88456813D01*
X129177423Y-88427373D01*
X129016519Y-88266469D01*
X128830112Y-88135947D01*
X128830110Y-88135946D01*
X128623875Y-88039776D01*
X128623866Y-88039773D01*
X128404075Y-87980881D01*
X128404071Y-87980880D01*
X128404070Y-87980880D01*
X128404069Y-87980879D01*
X128404064Y-87980879D01*
X128177380Y-87961047D01*
X128177376Y-87961047D01*
X127950691Y-87980879D01*
X127950680Y-87980881D01*
X127730889Y-88039773D01*
X127730880Y-88039776D01*
X127524645Y-88135946D01*
X127524643Y-88135947D01*
X127338236Y-88266469D01*
X127177332Y-88427373D01*
X127046810Y-88613780D01*
X127046809Y-88613782D01*
X126950639Y-88820017D01*
X126950636Y-88820026D01*
X126891744Y-89039817D01*
X126891742Y-89039826D01*
X126888397Y-89078060D01*
X126862943Y-89143128D01*
X126835707Y-89169024D01*
X126609546Y-89326438D01*
X126609533Y-89326448D01*
X126425724Y-89484243D01*
X126362035Y-89512975D01*
X126334147Y-89513685D01*
X126172386Y-89499533D01*
X126172382Y-89499533D01*
X125945697Y-89519365D01*
X125945686Y-89519367D01*
X125725895Y-89578259D01*
X125725886Y-89578262D01*
X125519651Y-89674432D01*
X125519649Y-89674433D01*
X125333242Y-89804955D01*
X125172338Y-89965859D01*
X125059771Y-90126624D01*
X125005195Y-90170249D01*
X124958196Y-90179501D01*
X117658453Y-90179501D01*
X117591414Y-90159816D01*
X117570772Y-90143182D01*
X116739819Y-89312228D01*
X116706334Y-89250905D01*
X116703500Y-89224547D01*
X116703500Y-89156099D01*
X116723185Y-89089060D01*
X116775989Y-89043305D01*
X116827500Y-89032099D01*
X117041021Y-89032099D01*
X117067228Y-89030036D01*
X117119645Y-89025912D01*
X117302488Y-88976920D01*
X117431008Y-88911435D01*
X117471146Y-88890985D01*
X117471147Y-88890983D01*
X117471149Y-88890983D01*
X117618257Y-88771857D01*
X117737383Y-88624749D01*
X117742972Y-88613781D01*
X117760724Y-88578939D01*
X117823320Y-88456088D01*
X117872312Y-88273245D01*
X117878500Y-88194621D01*
X117878499Y-87268580D01*
X117872312Y-87189955D01*
X117823320Y-87007112D01*
X117779938Y-86921971D01*
X117737385Y-86838453D01*
X117704554Y-86797911D01*
X117618257Y-86691343D01*
X117531958Y-86621459D01*
X117471146Y-86572214D01*
X117345868Y-86508383D01*
X117302488Y-86486280D01*
X117196924Y-86457994D01*
X117119642Y-86437287D01*
X117041024Y-86431100D01*
X117041021Y-86431100D01*
X115885396Y-86431100D01*
X115114978Y-86431101D01*
X115114979Y-86431101D01*
X115036356Y-86437287D01*
X114853511Y-86486280D01*
X114850978Y-86487571D01*
X114849354Y-86487875D01*
X114847447Y-86488608D01*
X114847313Y-86488259D01*
X114782308Y-86500462D01*
X114717569Y-86474181D01*
X114677316Y-86417072D01*
X114674329Y-86347266D01*
X114679538Y-86331085D01*
X114690641Y-86303289D01*
X114691853Y-86300465D01*
X115020669Y-85584824D01*
X115022030Y-85582053D01*
X115386658Y-84884011D01*
X115388182Y-84881264D01*
X115787700Y-84202579D01*
X115789323Y-84199975D01*
X116222725Y-83542364D01*
X116224493Y-83539825D01*
X116318582Y-83411693D01*
X116690637Y-82905020D01*
X116692526Y-82902581D01*
X117160835Y-82328247D01*
X117190204Y-82292229D01*
X117192250Y-82289845D01*
X117491827Y-81958259D01*
X117720211Y-81705471D01*
X117722347Y-81703225D01*
X118279225Y-81146347D01*
X118281471Y-81144211D01*
X118784546Y-80689701D01*
X118865845Y-80616250D01*
X118868229Y-80614204D01*
X119128433Y-80402035D01*
X119478581Y-80116526D01*
X119481020Y-80114637D01*
X120115829Y-79648490D01*
X120118364Y-79646725D01*
X120775975Y-79213323D01*
X120778579Y-79211700D01*
X121457270Y-78812178D01*
X121460011Y-78810658D01*
X122158053Y-78446030D01*
X122160824Y-78444669D01*
X122876479Y-78115847D01*
X122879307Y-78114633D01*
X123610705Y-77822477D01*
X123613580Y-77821412D01*
X124358818Y-77566682D01*
X124361769Y-77565756D01*
X125118967Y-77349095D01*
X125121959Y-77348320D01*
X125889132Y-77170294D01*
X125892138Y-77169676D01*
X126667360Y-77030732D01*
X126670432Y-77030262D01*
X127451677Y-76930763D01*
X127454762Y-76930449D01*
X128143865Y-76877972D01*
X128240032Y-76870649D01*
X128243165Y-76870490D01*
X129030461Y-76850539D01*
X129033539Y-76850539D01*
X129820832Y-76870490D01*
G37*
%TD.AperFunction*%
%TA.AperFunction,NonConductor*%
G36*
X116696068Y-104036390D02*
G01*
X116743534Y-104068125D01*
X116930193Y-104268832D01*
X116930199Y-104268837D01*
X116930201Y-104268840D01*
X117515049Y-104839722D01*
X118126780Y-105381669D01*
X118126789Y-105381676D01*
X118126791Y-105381678D01*
X118523519Y-105700305D01*
X118764004Y-105893447D01*
X118764003Y-105893447D01*
X119425206Y-106373840D01*
X119425206Y-106373839D01*
X119425208Y-106373841D01*
X120108845Y-106821724D01*
X120108856Y-106821730D01*
X120108863Y-106821735D01*
X120388810Y-106986383D01*
X120813322Y-107236056D01*
X121023279Y-107346250D01*
X121536995Y-107615870D01*
X121536994Y-107615869D01*
X122278177Y-107960277D01*
X123035109Y-108268465D01*
X123035109Y-108268464D01*
X123035121Y-108268469D01*
X123806078Y-108539733D01*
X124589240Y-108773433D01*
X125382779Y-108969023D01*
X126184840Y-109126046D01*
X126993551Y-109244135D01*
X126993557Y-109244135D01*
X126993567Y-109244137D01*
X126993564Y-109244137D01*
X126998391Y-109244604D01*
X126999462Y-109244708D01*
X127064290Y-109270768D01*
X127104738Y-109327740D01*
X127111500Y-109368130D01*
X127111500Y-109570500D01*
X127091815Y-109637539D01*
X127039011Y-109683294D01*
X126987501Y-109694500D01*
X126809130Y-109694500D01*
X126809123Y-109694501D01*
X126749516Y-109700908D01*
X126614671Y-109751202D01*
X126614664Y-109751206D01*
X126499455Y-109837452D01*
X126499452Y-109837455D01*
X126413206Y-109952664D01*
X126413202Y-109952671D01*
X126362908Y-110087517D01*
X126356501Y-110147116D01*
X126356500Y-110147135D01*
X126356500Y-112042870D01*
X126356501Y-112042876D01*
X126362908Y-112102483D01*
X126413202Y-112237328D01*
X126413206Y-112237335D01*
X126499451Y-112352543D01*
X126499452Y-112352544D01*
X126499454Y-112352546D01*
X126541444Y-112383980D01*
X126583314Y-112439912D01*
X126588298Y-112509603D01*
X126554813Y-112570926D01*
X126493490Y-112604411D01*
X126450720Y-112606154D01*
X125986753Y-112544202D01*
X125809328Y-112516503D01*
X125101190Y-112389844D01*
X124925123Y-112354315D01*
X124367719Y-112228943D01*
X124223270Y-112196454D01*
X124133371Y-112174133D01*
X124049010Y-112153188D01*
X123354772Y-111964421D01*
X123182618Y-111913496D01*
X122497418Y-111694208D01*
X122327669Y-111635712D01*
X121652818Y-111386322D01*
X121485869Y-111320393D01*
X120822707Y-111041395D01*
X120658799Y-110968129D01*
X120008657Y-110660084D01*
X119848137Y-110579633D01*
X119444802Y-110366193D01*
X119212269Y-110243139D01*
X119133859Y-110199398D01*
X119055450Y-110155657D01*
X118435062Y-109791349D01*
X118427991Y-109786984D01*
X118282336Y-109697059D01*
X117775010Y-109368130D01*
X117678635Y-109305644D01*
X117530220Y-109204685D01*
X116944445Y-108786965D01*
X116800615Y-108679520D01*
X116233900Y-108236306D01*
X116094969Y-108122609D01*
X115930042Y-107981433D01*
X115860524Y-107921925D01*
X115822397Y-107863378D01*
X115821975Y-107793510D01*
X115859394Y-107734505D01*
X115922773Y-107705097D01*
X115991991Y-107714623D01*
X116000178Y-107718671D01*
X116128665Y-107788204D01*
X116182224Y-107817189D01*
X116296214Y-107856321D01*
X116401742Y-107892550D01*
X116401744Y-107892550D01*
X116401746Y-107892551D01*
X116630678Y-107930753D01*
X116630679Y-107930753D01*
X116862775Y-107930753D01*
X116862776Y-107930753D01*
X117091708Y-107892551D01*
X117205062Y-107853635D01*
X117274857Y-107850486D01*
X117318853Y-107871071D01*
X117762603Y-108197874D01*
X117824476Y-108243441D01*
X118421182Y-108647108D01*
X118465679Y-108700976D01*
X118474282Y-108735229D01*
X118474425Y-108735204D01*
X118474774Y-108737187D01*
X118475229Y-108738996D01*
X118475362Y-108740522D01*
X118475365Y-108740538D01*
X118534257Y-108960329D01*
X118534260Y-108960338D01*
X118630430Y-109166573D01*
X118630431Y-109166575D01*
X118760953Y-109352982D01*
X118921857Y-109513886D01*
X118921860Y-109513888D01*
X119108265Y-109644409D01*
X119314503Y-109740580D01*
X119314508Y-109740581D01*
X119314510Y-109740582D01*
X119354160Y-109751206D01*
X119534307Y-109799476D01*
X119696229Y-109813642D01*
X119760997Y-109819309D01*
X119760999Y-109819309D01*
X119761001Y-109819309D01*
X119817672Y-109814350D01*
X119987691Y-109799476D01*
X120207495Y-109740580D01*
X120413733Y-109644409D01*
X120600138Y-109513888D01*
X120761046Y-109352980D01*
X120891567Y-109166575D01*
X120987738Y-108960337D01*
X121046634Y-108740533D01*
X121066467Y-108513841D01*
X121046634Y-108287149D01*
X120987738Y-108067345D01*
X120891567Y-107861107D01*
X120761046Y-107674702D01*
X120761044Y-107674699D01*
X120600140Y-107513795D01*
X120413733Y-107383273D01*
X120413731Y-107383272D01*
X120207496Y-107287102D01*
X120207487Y-107287099D01*
X119987696Y-107228207D01*
X119987692Y-107228206D01*
X119987691Y-107228206D01*
X119987690Y-107228205D01*
X119987685Y-107228205D01*
X119761001Y-107208373D01*
X119760997Y-107208373D01*
X119534312Y-107228205D01*
X119534301Y-107228207D01*
X119314510Y-107287099D01*
X119314501Y-107287102D01*
X119108262Y-107383274D01*
X119064536Y-107413891D01*
X118998329Y-107436218D01*
X118930562Y-107419206D01*
X118926002Y-107416390D01*
X118874340Y-107382928D01*
X118284022Y-106966133D01*
X118178813Y-106885356D01*
X118137628Y-106828918D01*
X118132021Y-106766586D01*
X118132857Y-106761573D01*
X118132861Y-106761558D01*
X118149550Y-106560149D01*
X118152027Y-106530259D01*
X118152027Y-106530246D01*
X118132862Y-106298955D01*
X118132860Y-106298944D01*
X118075884Y-106073952D01*
X117982651Y-105861404D01*
X117855710Y-105667105D01*
X117855707Y-105667102D01*
X117855706Y-105667100D01*
X117698511Y-105496340D01*
X117698506Y-105496336D01*
X117698504Y-105496334D01*
X117515361Y-105353788D01*
X117515355Y-105353784D01*
X117311231Y-105243317D01*
X117311222Y-105243314D01*
X117091711Y-105167955D01*
X116920009Y-105139303D01*
X116862776Y-105129753D01*
X116785996Y-105129753D01*
X116718957Y-105110068D01*
X116673202Y-105057264D01*
X116663258Y-104988106D01*
X116673202Y-104954241D01*
X116708633Y-104876659D01*
X116729115Y-104734202D01*
X116708633Y-104591745D01*
X116648845Y-104460829D01*
X116648844Y-104460827D01*
X116611234Y-104414156D01*
X116611223Y-104414143D01*
X116501193Y-104304113D01*
X116467708Y-104242790D01*
X116472692Y-104173098D01*
X116501191Y-104128753D01*
X116565055Y-104064889D01*
X116626376Y-104031406D01*
X116696068Y-104036390D01*
G37*
%TD.AperFunction*%
%TA.AperFunction,NonConductor*%
G36*
X139608121Y-105738950D02*
G01*
X139640116Y-105762062D01*
X139784806Y-105906752D01*
X139818291Y-105968075D01*
X139813307Y-106037767D01*
X139784808Y-106082112D01*
X139744166Y-106122755D01*
X139649653Y-106217268D01*
X139612032Y-106263952D01*
X139612031Y-106263954D01*
X139552244Y-106394867D01*
X139531763Y-106537324D01*
X139552244Y-106679780D01*
X139612031Y-106810694D01*
X139612032Y-106810695D01*
X139612033Y-106810697D01*
X139649652Y-106857380D01*
X139649655Y-106857383D01*
X139649660Y-106857389D01*
X140655651Y-107863378D01*
X140990146Y-108197873D01*
X141036829Y-108235493D01*
X141167745Y-108295281D01*
X141167744Y-108295281D01*
X141188226Y-108298225D01*
X141310202Y-108315763D01*
X141362191Y-108308288D01*
X141431348Y-108318231D01*
X141484152Y-108363986D01*
X141503837Y-108431026D01*
X141484153Y-108498065D01*
X141456227Y-108528702D01*
X141263385Y-108679520D01*
X141119554Y-108786965D01*
X140533779Y-109204685D01*
X140385364Y-109305644D01*
X139781679Y-109697049D01*
X139723932Y-109732702D01*
X139628937Y-109791349D01*
X139008549Y-110155657D01*
X138851731Y-110243139D01*
X138215862Y-110579633D01*
X138055342Y-110660084D01*
X137405200Y-110968129D01*
X137241292Y-111041395D01*
X136578130Y-111320393D01*
X136411181Y-111386322D01*
X135736330Y-111635712D01*
X135566581Y-111694208D01*
X134881381Y-111913496D01*
X134709227Y-111964421D01*
X134014989Y-112153188D01*
X133840730Y-112196454D01*
X133138876Y-112354315D01*
X132962809Y-112389844D01*
X132254671Y-112516503D01*
X132077246Y-112544202D01*
X131364142Y-112639422D01*
X131185714Y-112659240D01*
X130653141Y-112706494D01*
X130584624Y-112692811D01*
X130534382Y-112644258D01*
X130518365Y-112576249D01*
X130541659Y-112510376D01*
X130596869Y-112467555D01*
X130621774Y-112460670D01*
X130622865Y-112460487D01*
X130641981Y-112457298D01*
X130861503Y-112381936D01*
X131065626Y-112271470D01*
X131248784Y-112128913D01*
X131405979Y-111958153D01*
X131532924Y-111763849D01*
X131556047Y-111711132D01*
X131601001Y-111657647D01*
X131650993Y-111638347D01*
X132270490Y-111544327D01*
X132983828Y-111406675D01*
X133053382Y-111413301D01*
X133078441Y-111426852D01*
X133178286Y-111496763D01*
X133384524Y-111592934D01*
X133604328Y-111651830D01*
X133766250Y-111665996D01*
X133831018Y-111671663D01*
X133831020Y-111671663D01*
X133831022Y-111671663D01*
X133887693Y-111666704D01*
X134057712Y-111651830D01*
X134277516Y-111592934D01*
X134483754Y-111496763D01*
X134670159Y-111366242D01*
X134831067Y-111205334D01*
X134961588Y-111018929D01*
X135057759Y-110812691D01*
X135116655Y-110592887D01*
X135136488Y-110366195D01*
X135134559Y-110344152D01*
X135118068Y-110155657D01*
X135116655Y-110139503D01*
X135057759Y-109919699D01*
X134961588Y-109713461D01*
X134831067Y-109527056D01*
X134831065Y-109527053D01*
X134670161Y-109366149D01*
X134483754Y-109235627D01*
X134483752Y-109235626D01*
X134277517Y-109139456D01*
X134277508Y-109139453D01*
X134057717Y-109080561D01*
X134057713Y-109080560D01*
X134057712Y-109080560D01*
X134057711Y-109080559D01*
X134057706Y-109080559D01*
X133831022Y-109060727D01*
X133831018Y-109060727D01*
X133604333Y-109080559D01*
X133604322Y-109080561D01*
X133384531Y-109139453D01*
X133384522Y-109139456D01*
X133178287Y-109235626D01*
X133178285Y-109235627D01*
X132991878Y-109366149D01*
X132830974Y-109527053D01*
X132700452Y-109713460D01*
X132700451Y-109713462D01*
X132604281Y-109919697D01*
X132604279Y-109919704D01*
X132558250Y-110091486D01*
X132521885Y-110151146D01*
X132464403Y-110180651D01*
X132415755Y-110191053D01*
X132404381Y-110193485D01*
X131910593Y-110278564D01*
X131692245Y-110316185D01*
X131556661Y-110333995D01*
X131487629Y-110323209D01*
X131436702Y-110278872D01*
X131422866Y-110257696D01*
X131405979Y-110231847D01*
X131248784Y-110061087D01*
X131248779Y-110061083D01*
X131248777Y-110061081D01*
X131065634Y-109918535D01*
X131065628Y-109918531D01*
X130861504Y-109808064D01*
X130861495Y-109808061D01*
X130641984Y-109732702D01*
X130428252Y-109697037D01*
X130413049Y-109694500D01*
X130180951Y-109694500D01*
X130165748Y-109697037D01*
X129952015Y-109732702D01*
X129732504Y-109808061D01*
X129732495Y-109808064D01*
X129528371Y-109918531D01*
X129528365Y-109918535D01*
X129345222Y-110061081D01*
X129345218Y-110061085D01*
X129336866Y-110070158D01*
X129276979Y-110106148D01*
X129207141Y-110104047D01*
X129149525Y-110064522D01*
X129129455Y-110029507D01*
X129100797Y-109952671D01*
X129100793Y-109952664D01*
X129014547Y-109837455D01*
X129014544Y-109837452D01*
X128899335Y-109751206D01*
X128899328Y-109751202D01*
X128764482Y-109700908D01*
X128764483Y-109700908D01*
X128704883Y-109694501D01*
X128704881Y-109694500D01*
X128704873Y-109694500D01*
X128704865Y-109694500D01*
X128536500Y-109694500D01*
X128469461Y-109674815D01*
X128423706Y-109622011D01*
X128412500Y-109570500D01*
X128412500Y-109482443D01*
X128432185Y-109415404D01*
X128484989Y-109369649D01*
X128542491Y-109358588D01*
X128578669Y-109360338D01*
X128623348Y-109362500D01*
X128623356Y-109362500D01*
X129440652Y-109362500D01*
X130256978Y-109323014D01*
X131070433Y-109244137D01*
X131070442Y-109244135D01*
X131070449Y-109244135D01*
X131879160Y-109126046D01*
X132681221Y-108969023D01*
X133474760Y-108773433D01*
X134257922Y-108539733D01*
X135028879Y-108268469D01*
X135028891Y-108268464D01*
X135028891Y-108268465D01*
X135785823Y-107960277D01*
X136527006Y-107615869D01*
X136527005Y-107615870D01*
X137040721Y-107346250D01*
X137250678Y-107236056D01*
X137675190Y-106986383D01*
X137955137Y-106821735D01*
X137955143Y-106821730D01*
X137955155Y-106821724D01*
X138638792Y-106373841D01*
X138638794Y-106373839D01*
X138638794Y-106373840D01*
X139299997Y-105893447D01*
X139299996Y-105893447D01*
X139474790Y-105753062D01*
X139539382Y-105726432D01*
X139608121Y-105738950D01*
G37*
%TD.AperFunction*%
%TA.AperFunction,NonConductor*%
G36*
X129305063Y-112094992D02*
G01*
X129336866Y-112119843D01*
X129344302Y-112127920D01*
X129345215Y-112128912D01*
X129345222Y-112128918D01*
X129528365Y-112271464D01*
X129528371Y-112271468D01*
X129528374Y-112271470D01*
X129732497Y-112381936D01*
X129846487Y-112421068D01*
X129952015Y-112457297D01*
X129952017Y-112457297D01*
X129952019Y-112457298D01*
X130173995Y-112494339D01*
X130236880Y-112524790D01*
X130273319Y-112584404D01*
X130271744Y-112654256D01*
X130232654Y-112712168D01*
X130168461Y-112739753D01*
X130159070Y-112740527D01*
X129571198Y-112766555D01*
X129391735Y-112770527D01*
X128672265Y-112770527D01*
X128492801Y-112766555D01*
X127969324Y-112743378D01*
X127903221Y-112720747D01*
X127859847Y-112665971D01*
X127852972Y-112596440D01*
X127884780Y-112534231D01*
X127945171Y-112499093D01*
X127974805Y-112495499D01*
X128704872Y-112495499D01*
X128764483Y-112489091D01*
X128899331Y-112438796D01*
X129014546Y-112352546D01*
X129100796Y-112237331D01*
X129100798Y-112237326D01*
X129129455Y-112160493D01*
X129171326Y-112104559D01*
X129236790Y-112080141D01*
X129305063Y-112094992D01*
G37*
%TD.AperFunction*%
M02*
