M48
; DRILL file {KiCad 7.0.9} date 
; FORMAT={-:-/ absolute / inch / decimal}
; #@! TF.CreationDate,2025-02-20T14:34:04+01:00
; #@! TF.GenerationSoftware,Kicad,Pcbnew,7.0.9
; #@! TF.FileFunction,Plated,1,2,PTH
FMAT,2
INCH
; #@! TA.AperFunction,Plated,PTH,ComponentDrill
T1C0.0315
; #@! TA.AperFunction,Plated,PTH,ComponentDrill
T2C0.0354
; #@! TA.AperFunction,Plated,PTH,ComponentDrill
T3C0.0512
%
G90
G05
T1
X4.3749Y-3.8289
X4.4478Y-3.275
X4.715Y-4.2722
X4.8911Y-2.9349
X4.9544Y-3.6736
X4.9674Y-3.575
X5.015Y-3.7526
X5.0464Y-3.5144
X5.1136Y-3.7656
X5.145Y-3.5274
X5.1926Y-3.705
X5.2056Y-3.6064
X5.2689Y-4.3451
X5.445Y-3.0078
X5.7122Y-4.005
X5.7851Y-3.4511
T2
X4.3462Y-3.5898
X4.3462Y-3.6898
X4.5256Y-4.1234
X4.5259Y-3.1563
X4.5963Y-4.1941
X4.5966Y-3.0856
X5.0298Y-4.3738
X5.0302Y-2.9062
X5.1298Y-4.3738
X5.1302Y-2.9062
X5.5634Y-4.1944
X5.5637Y-3.0859
X5.6341Y-4.1237
X5.6344Y-3.1566
X5.8138Y-3.5902
X5.8138Y-3.6902
T3
X4.7969Y-3.64
X5.5919Y-3.64
T1
G00X4.5936Y-3.454
M15
G01X4.5464Y-3.454
M16
G05
G00X4.5936Y-3.64
M15
G01X4.5464Y-3.64
M16
G05
G00X4.5936Y-3.826
M15
G01X4.5464Y-3.826
M16
G05
T0
M30
