%TF.GenerationSoftware,KiCad,Pcbnew,7.0.9*%
%TF.CreationDate,2025-02-20T14:34:02+01:00*%
%TF.ProjectId,firefly,66697265-666c-4792-9e6b-696361645f70,rev?*%
%TF.SameCoordinates,Original*%
%TF.FileFunction,Legend,Bot*%
%TF.FilePolarity,Positive*%
%FSLAX46Y46*%
G04 Gerber Fmt 4.6, Leading zero omitted, Abs format (unit mm)*
G04 Created by KiCad (PCBNEW 7.0.9) date 2025-02-20 14:34:02*
%MOMM*%
%LPD*%
G01*
G04 APERTURE LIST*
%ADD10C,0.100000*%
%ADD11C,0.120000*%
G04 APERTURE END LIST*
D10*
X129032000Y-91694000D02*
X129032000Y-93218000D01*
X129794000Y-92456000D02*
X128270000Y-92456000D01*
X129540001Y-92456000D02*
G75*
G03*
X129540001Y-92456000I-508000J0D01*
G01*
D11*
%TO.C,R2*%
X127908206Y-88261952D02*
X127400921Y-86368738D01*
X128136956Y-86171517D02*
X126664885Y-86565958D01*
X124273397Y-77640803D02*
X125745468Y-77246363D01*
X124502148Y-75550368D02*
X125009433Y-77443583D01*
%TO.C,R5*%
X126860999Y-96216280D02*
X125880999Y-97913690D01*
X125221088Y-97532690D02*
X126540910Y-98294690D01*
X122140881Y-106423765D02*
X120381117Y-105407765D01*
X120280999Y-107613175D02*
X121260999Y-105915765D01*
%TO.C,R4*%
X124837950Y-93579792D02*
X122944736Y-94087077D01*
X122747515Y-93351042D02*
X123141956Y-94823113D01*
X114216801Y-97214601D02*
X113822361Y-95742530D01*
X112126366Y-96985850D02*
X114019581Y-96478565D01*
%TO.C,R6*%
X130155790Y-96650048D02*
X130663075Y-98543262D01*
X129927040Y-98740483D02*
X131399111Y-98346042D01*
X133790599Y-107271197D02*
X132318528Y-107665637D01*
X133561848Y-109361632D02*
X133054563Y-107468417D01*
%TO.C,3*%
X125271718Y-90285001D02*
X123574308Y-89305001D01*
X123955308Y-88645090D02*
X123193308Y-89964912D01*
X115191233Y-85344912D02*
X115953233Y-84025090D01*
X113874823Y-83705001D02*
X115572233Y-84685001D01*
%TO.C,R7*%
X132792278Y-94626999D02*
X134489688Y-95606999D01*
X134108688Y-96266910D02*
X134870688Y-94947088D01*
X142872763Y-99567088D02*
X142110763Y-100886910D01*
X144189173Y-101206999D02*
X142491763Y-100226999D01*
%TO.C,R1*%
X131202997Y-88695720D02*
X132182997Y-86998310D01*
X132842908Y-87379310D02*
X131523086Y-86617310D01*
X136143086Y-78615235D02*
X137462908Y-79377235D01*
X137782997Y-77298825D02*
X136802997Y-78996235D01*
%TO.C,R8*%
X133226046Y-91332208D02*
X135119260Y-90824923D01*
X135316481Y-91560958D02*
X134922040Y-90088887D01*
X143847195Y-87697399D02*
X144241635Y-89169470D01*
X145937630Y-87926150D02*
X144044415Y-88433435D01*
%TD*%
M02*
